<?xml version="1.0" encoding="utf-8"?>
<!-- Generator: Adobe Illustrator 24.2.1, SVG Export Plug-In . SVG Version: 6.00 Build 0)  -->
<svg version="1.1" id="Слой_1" xmlns="http://www.w3.org/2000/svg" xmlns:xlink="http://www.w3.org/1999/xlink" x="0px" y="0px"
	 viewBox="0 0 628.9 450.5" style="enable-background:new 0 0 628.9 450.5;" xml:space="preserve">
<style type="text/css">
	.st0{display:none;}
	.st1{display:inline;fill:#FFFFFF;}
	.st2{fill:#1AA08B;}
	.st3{display:none;fill:#1AA08B;}
	.st4{fill:#FFFFFF;}
	.st5{fill:#0A0806;}
	.st6{fill:#48341A;}
	.st7{fill:#505050;}
	.st8{fill:#F9D54B;}
	.st9{fill:#FEFEFB;}
</style>
<g class="st0">
	<path class="st1" d="M56.8,81.1H22.5V68.7h82.7v12.4H71v87.6H56.8V81.1z"/>
	<path class="st1" d="M187.7,168.7L166.1,138c-2.7,0.2-4.8,0.3-6.3,0.3h-24.7v30.4h-14.3v-100h39c13,0,23.1,3.1,30.6,9.3
		c7.4,6.2,11.1,14.7,11.1,25.6c0,7.7-1.9,14.3-5.7,19.7c-3.8,5.4-9.2,9.4-16.3,11.9l23.7,33.6L187.7,168.7L187.7,168.7z
		 M180.1,120.3c4.8-3.9,7.1-9.5,7.1-16.7s-2.4-12.8-7.1-16.6c-4.8-3.9-11.7-5.8-20.7-5.8h-24.3v45h24.3
		C168.4,126.1,175.3,124.2,180.1,120.3z"/>
	<path class="st1" d="M242.5,163.2c-8.1-4.4-14.5-10.5-19.1-18.4c-4.6-7.8-6.9-16.5-6.9-26.1s2.3-18.3,6.9-26.1
		c4.6-7.8,11-13.9,19.1-18.4c8.1-4.4,17.2-6.6,27.3-6.6c10,0,19,2.2,27.1,6.6s14.4,10.5,19,18.3s6.9,16.5,6.9,26.2
		s-2.3,18.5-6.9,26.2c-4.6,7.8-10.9,13.9-19,18.3c-8.1,4.4-17.1,6.6-27.1,6.6C259.7,169.8,250.6,167.6,242.5,163.2z M289.6,152.1
		c5.9-3.3,10.5-7.9,13.9-13.8c3.4-5.9,5.1-12.4,5.1-19.6s-1.7-13.8-5.1-19.6c-3.4-5.9-8-10.5-13.9-13.8s-12.5-5-19.8-5
		s-14,1.7-19.9,5c-6,3.3-10.6,7.9-14,13.8s-5.1,12.4-5.1,19.6s1.7,13.8,5.1,19.6c3.4,5.9,8,10.5,14,13.8s12.6,5,19.9,5
		S283.7,155.4,289.6,152.1z"/>
	<path class="st1" d="M430.7,68.7v100H419l-60-74.6v74.6h-14.3v-100h11.7l60,74.6V68.7H430.7z"/>
	<path class="st1" d="M526.8,135.4h-61.4c0.9,6.7,3.8,12,8.8,16.1c5,4,11.2,6.1,18.6,6.1c9,0,16.3-3,21.9-9.1l7.6,8.9
		c-3.4,4-7.7,7-12.8,9.1c-5.1,2.1-10.8,3.1-17.1,3.1c-8,0-15.1-1.6-21.3-4.9c-6.2-3.3-11-7.9-14.4-13.8c-3.4-5.9-5.1-12.6-5.1-20
		c0-7.3,1.6-14,4.9-19.9s7.8-10.5,13.6-13.8c5.8-3.3,12.3-4.9,19.5-4.9s13.7,1.6,19.4,4.9c5.7,3.3,10.1,7.9,13.3,13.8
		s4.8,12.7,4.8,20.3C527.1,132.3,527,133.7,526.8,135.4z M473.2,109.8c-4.4,4-7,9.2-7.8,15.7H514c-0.8-6.4-3.4-11.6-7.8-15.6
		s-9.9-6.1-16.5-6.1S477.6,105.8,473.2,109.8z"/>
	<path class="st1" d="M592.2,168.7l-21.9-29l-22.1,29H533l29.9-38.7l-28.4-37h15.3l20.9,27.3L591.2,93h15l-28.6,37l30.1,38.7H592.2z
		"/>
</g>
<g>
	<g>
		<path class="st2" d="M178.9,216.4l-33.4,100h-15l-27.3-79.9l-27.3,79.9H60.6l-33.4-100h14.7l27,81.3L97,216.4h13.1l27.6,81.7
			l27.6-81.7L178.9,216.4L178.9,216.4z"/>
		<path class="st3" d="M214.6,310.9c-8.1-4.4-14.5-10.5-19.1-18.4c-4.6-7.8-6.9-16.5-6.9-26.1s2.3-18.3,6.9-26.1
			c4.6-7.8,11-13.9,19.1-18.4c8.1-4.4,17.2-6.6,27.3-6.6c10,0,19,2.2,27.1,6.6c8.1,4.4,14.4,10.5,19,18.3s6.9,16.5,6.9,26.2
			c0,9.7-2.3,18.5-6.9,26.2c-4.6,7.8-10.9,13.9-19,18.3s-17.1,6.6-27.1,6.6C231.8,317.5,222.7,315.3,214.6,310.9z M261.7,299.8
			c5.9-3.3,10.5-7.9,13.9-13.8s5.1-12.4,5.1-19.6s-1.7-13.8-5.1-19.6c-3.4-5.9-8-10.5-13.9-13.8s-12.5-5-19.8-5s-14,1.7-19.9,5
			c-6,3.3-10.6,7.9-14,13.8c-3.4,5.9-5.1,12.4-5.1,19.6s1.7,13.8,5.1,19.6c3.4,5.9,8,10.5,14,13.8s12.6,5,19.9,5
			S255.8,303.1,261.7,299.8z"/>
		<path class="st2" d="M385,316.4l-21.6-30.7c-2.7,0.2-4.8,0.3-6.3,0.3h-24.7v30.4h-14.3v-100h39c13,0,23.1,3.1,30.6,9.3
			c7.4,6.2,11.1,14.7,11.1,25.6c0,7.7-1.9,14.3-5.7,19.7c-3.8,5.4-9.2,9.4-16.3,11.9l23.7,33.6L385,316.4L385,316.4z M377.5,267.9
			c4.8-3.9,7.1-9.5,7.1-16.7s-2.4-12.8-7.1-16.6c-4.8-3.9-11.7-5.8-20.7-5.8h-24.3v45h24.3C365.8,273.8,372.7,271.8,377.5,267.9z"/>
		<path class="st2" d="M423.5,216.4h14.3V304h54.1v12.4h-68.4V216.4z"/>
		<path class="st2" d="M509.7,216.4h42.1c10.6,0,20,2.1,28.1,6.3c8.2,4.2,14.5,10.1,19.1,17.6c4.5,7.6,6.8,16.3,6.8,26.1
			s-2.3,18.5-6.8,26.1s-10.9,13.5-19.1,17.6c-8.2,4.2-17.6,6.3-28.1,6.3h-42.1L509.7,216.4L509.7,216.4z M551,303.9
			c8.1,0,15.2-1.6,21.4-4.7c6.1-3.1,10.9-7.5,14.2-13.2s5-12.2,5-19.6s-1.7-14-5-19.6c-3.3-5.7-8.1-10.1-14.2-13.2
			c-6.1-3.1-13.3-4.7-21.4-4.7h-27V304L551,303.9L551,303.9z"/>
	</g>
</g>
<rect x="34.4" y="358" class="st4" width="563" height="2"/>
<g>
	<path class="st4" d="M44.7,386.9c1.1,0.9,1.7,2.2,1.7,3.9s-0.6,3-1.7,3.9c-1.1,0.9-2.7,1.4-4.7,1.4h-3.8v4.6H34v-15.2h6
		C42,385.5,43.5,385.9,44.7,386.9z M43.1,393.3c0.7-0.6,1.1-1.4,1.1-2.5s-0.4-2-1.1-2.5c-0.7-0.6-1.8-0.9-3.2-0.9h-3.7v6.8h3.7
		C41.3,394.2,42.4,393.9,43.1,393.3z"/>
	<path class="st4" d="M64.1,400.1c-0.9-0.5-1.6-1.2-2.1-2.1s-0.8-1.9-0.8-3s0.3-2.1,0.8-3s1.2-1.6,2.1-2.1c0.9-0.5,1.9-0.8,3.1-0.8
		s2.2,0.3,3.1,0.8s1.6,1.2,2.1,2.1s0.8,1.9,0.8,3s-0.3,2.1-0.8,3s-1.2,1.6-2.1,2.1s-1.9,0.8-3.1,0.8S65,400.6,64.1,400.1z
		 M69.2,398.5c0.6-0.3,1-0.8,1.4-1.4c0.3-0.6,0.5-1.3,0.5-2.1c0-0.8-0.2-1.5-0.5-2.1s-0.8-1.1-1.4-1.4s-1.3-0.5-2-0.5
		s-1.4,0.2-2,0.5s-1.1,0.8-1.4,1.4c-0.3,0.6-0.5,1.3-0.5,2.1c0,0.8,0.2,1.5,0.5,2.1c0.3,0.6,0.8,1.1,1.4,1.4s1.3,0.5,2,0.5
		C68,399,68.6,398.8,69.2,398.5z"/>
	<path class="st4" d="M106.3,389.2l-4.3,11.5h-2l-3.3-8.8l-3.4,8.8h-2L87,389.2h2l3.4,9.2l3.5-9.2h1.8l3.4,9.2l3.4-9.2H106.3z"/>
	<path class="st4" d="M131.6,395.6h-9.4c0.1,1,0.6,1.8,1.3,2.5c0.8,0.6,1.7,0.9,2.8,0.9c1.4,0,2.5-0.5,3.3-1.4l1.2,1.4
		c-0.5,0.6-1.2,1.1-1.9,1.4c-0.8,0.3-1.6,0.5-2.6,0.5c-1.2,0-2.3-0.3-3.2-0.8c-0.9-0.5-1.7-1.2-2.2-2.1s-0.8-1.9-0.8-3
		s0.3-2.1,0.8-3s1.2-1.6,2.1-2.1s1.9-0.8,3-0.8s2.1,0.3,3,0.8s1.5,1.2,2,2.1s0.7,1.9,0.7,3.1C131.6,395.2,131.6,395.4,131.6,395.6z
		 M123.4,391.7c-0.7,0.6-1.1,1.4-1.2,2.4h7.4c-0.1-1-0.5-1.8-1.2-2.4s-1.5-0.9-2.5-0.9C124.9,390.8,124.1,391.1,123.4,391.7z"/>
	<path class="st4" d="M151.2,389.6c0.7-0.3,1.6-0.5,2.6-0.5v2c-0.1,0-0.3,0-0.5,0c-1.1,0-2,0.3-2.7,1c-0.6,0.7-1,1.6-1,2.9v5.8h-2.1
		v-11.5h2v1.9C150,390.4,150.5,389.9,151.2,389.6z"/>
	<path class="st4" d="M179.7,395.6h-9.4c0.1,1,0.6,1.8,1.3,2.5c0.8,0.6,1.7,0.9,2.8,0.9c1.4,0,2.5-0.5,3.3-1.4l1.2,1.4
		c-0.5,0.6-1.2,1.1-1.9,1.4c-0.8,0.3-1.6,0.5-2.6,0.5c-1.2,0-2.3-0.3-3.2-0.8s-1.7-1.2-2.2-2.1s-0.8-1.9-0.8-3s0.3-2.1,0.8-3
		s1.2-1.6,2.1-2.1c0.9-0.5,1.9-0.8,3-0.8s2.1,0.3,3,0.8s1.5,1.2,2,2.1s0.7,1.9,0.7,3.1C179.8,395.2,179.8,395.4,179.7,395.6z
		 M171.5,391.7c-0.7,0.6-1.1,1.4-1.2,2.4h7.4c-0.1-1-0.5-1.8-1.2-2.4s-1.5-0.9-2.5-0.9C173.1,390.8,172.2,391.1,171.5,391.7z"/>
	<path class="st4" d="M206.6,384.6v16.2h-2V399c-0.5,0.6-1.1,1.1-1.8,1.5c-0.7,0.3-1.5,0.5-2.4,0.5c-1.1,0-2.1-0.2-3-0.7
		s-1.6-1.2-2.1-2.1s-0.8-1.9-0.8-3.1s0.3-2.2,0.8-3.1s1.2-1.6,2.1-2.1s1.9-0.7,3-0.7c0.8,0,1.6,0.2,2.3,0.5s1.3,0.8,1.7,1.4v-6.4
		L206.6,384.6L206.6,384.6z M202.7,398.5c0.6-0.3,1.1-0.8,1.4-1.4c0.3-0.6,0.5-1.3,0.5-2.1c0-0.8-0.2-1.5-0.5-2.1s-0.8-1.1-1.4-1.4
		c-0.6-0.3-1.3-0.5-2-0.5s-1.4,0.2-2,0.5s-1.1,0.8-1.4,1.4c-0.3,0.6-0.5,1.3-0.5,2.1c0,0.8,0.2,1.5,0.5,2.1s0.8,1.1,1.4,1.4
		c0.6,0.3,1.3,0.5,2,0.5S202.1,398.8,202.7,398.5z"/>
	<path class="st4" d="M251.7,389.8c0.9,0.5,1.6,1.2,2.1,2.1s0.8,1.9,0.8,3.1s-0.3,2.2-0.8,3.1s-1.2,1.6-2.1,2.1
		c-0.9,0.5-1.9,0.7-3,0.7c-0.9,0-1.6-0.2-2.4-0.5c-0.7-0.3-1.3-0.8-1.8-1.5v1.8h-2v-16.2h2.1v6.4c0.5-0.6,1-1.1,1.7-1.4
		s1.5-0.5,2.3-0.5C249.8,389.1,250.8,389.3,251.7,389.8z M250.5,398.5c0.6-0.3,1.1-0.8,1.4-1.4c0.3-0.6,0.5-1.3,0.5-2.1
		c0-0.8-0.2-1.5-0.5-2.1s-0.8-1.1-1.4-1.4s-1.3-0.5-2-0.5s-1.4,0.2-2,0.5s-1.1,0.8-1.4,1.4c-0.3,0.6-0.5,1.3-0.5,2.1
		c0,0.8,0.2,1.5,0.5,2.1s0.8,1.1,1.4,1.4c0.6,0.3,1.3,0.5,2,0.5C249.3,399,249.9,398.8,250.5,398.5z"/>
	<path class="st4" d="M280.4,389.2l-5.6,12.7c-0.5,1.2-1.1,2-1.7,2.5c-0.7,0.5-1.5,0.7-2.4,0.7c-0.6,0-1.1-0.1-1.6-0.3
		c-0.5-0.2-1-0.4-1.3-0.8l0.9-1.6c0.6,0.6,1.3,0.9,2.1,0.9c0.5,0,0.9-0.1,1.3-0.4c0.3-0.3,0.6-0.7,0.9-1.4l0.4-0.8l-5.1-11.5h2.2
		l4,9.2l4-9.2L280.4,389.2L280.4,389.2z"/>
	<path class="st4" d="M317.7,387.4h-5.2v-1.9h12.6v1.9h-5.2v13.4h-2.2L317.7,387.4L317.7,387.4z"/>
	<path class="st4" d="M350.7,400.7l-3.3-4.7c-0.4,0-0.7,0-1,0h-3.8v4.6h-2.2v-15.2h5.9c2,0,3.5,0.5,4.7,1.4c1.1,0.9,1.7,2.2,1.7,3.9
		c0,1.2-0.3,2.2-0.9,3s-1.4,1.4-2.5,1.8l3.6,5.1h-2.2L350.7,400.7L350.7,400.7z M349.6,393.3c0.7-0.6,1.1-1.4,1.1-2.5
		s-0.4-2-1.1-2.5c-0.7-0.6-1.8-0.9-3.2-0.9h-3.7v6.9h3.7C347.8,394.2,348.9,393.9,349.6,393.3z"/>
	<path class="st4" d="M372.2,399.9c-1.2-0.7-2.2-1.6-2.9-2.8c-0.7-1.2-1.1-2.5-1.1-4s0.4-2.8,1.1-4s1.7-2.1,2.9-2.8
		c1.2-0.7,2.6-1,4.2-1c1.5,0,2.9,0.3,4.1,1s2.2,1.6,2.9,2.8c0.7,1.2,1,2.5,1,4s-0.3,2.8-1,4s-1.7,2.1-2.9,2.8c-1.2,0.7-2.6,1-4.1,1
		C374.8,400.9,373.4,400.6,372.2,399.9z M379.4,398.2c0.9-0.5,1.6-1.2,2.1-2.1s0.8-1.9,0.8-3s-0.3-2.1-0.8-3s-1.2-1.6-2.1-2.1
		s-1.9-0.8-3-0.8s-2.1,0.3-3,0.8s-1.6,1.2-2.1,2.1s-0.8,1.9-0.8,3s0.3,2.1,0.8,3s1.2,1.6,2.1,2.1s1.9,0.8,3,0.8
		S378.5,398.7,379.4,398.2z"/>
	<path class="st4" d="M413.9,385.5v15.2h-1.8l-9.1-11.4v11.4h-2.2v-15.2h1.8l9.2,11.4v-11.4H413.9z"/>
	<path class="st4" d="M441.7,395.6h-9.4c0.1,1,0.6,1.8,1.3,2.5c0.8,0.6,1.7,0.9,2.8,0.9c1.4,0,2.5-0.5,3.3-1.4l1.2,1.4
		c-0.5,0.6-1.2,1.1-2,1.4s-1.6,0.5-2.6,0.5c-1.2,0-2.3-0.3-3.2-0.8c-0.9-0.5-1.7-1.2-2.2-2.1s-0.8-1.9-0.8-3s0.3-2.1,0.8-3
		s1.2-1.6,2.1-2.1s1.9-0.8,3-0.8s2.1,0.3,3,0.8s1.5,1.2,2,2.1s0.7,1.9,0.7,3.1C441.7,395.2,441.7,395.4,441.7,395.6z M433.5,391.7
		c-0.7,0.6-1.1,1.4-1.2,2.4h7.4c-0.1-1-0.5-1.8-1.2-2.4s-1.5-0.9-2.5-0.9C435,390.8,434.2,391.1,433.5,391.7z"/>
	<path class="st4" d="M464.7,400.7l-3.3-4.4l-3.4,4.4h-2.3l4.6-5.9l-4.3-5.6h2.3l3.2,4.2l3.2-4.2h2.3l-4.4,5.6l4.6,5.9H464.7z"/>
	<path class="st4" d="M504.7,387.4h-5.2v-1.9h12.6v1.9h-5.2v13.4h-2.2L504.7,387.4L504.7,387.4z"/>
	<path class="st4" d="M536.4,395.6H527c0.1,1,0.6,1.8,1.3,2.5c0.8,0.6,1.7,0.9,2.8,0.9c1.4,0,2.5-0.5,3.3-1.4l1.2,1.4
		c-0.5,0.6-1.2,1.1-2,1.4s-1.6,0.5-2.6,0.5c-1.2,0-2.3-0.3-3.2-0.8s-1.7-1.2-2.2-2.1s-0.8-1.9-0.8-3s0.3-2.1,0.8-3s1.2-1.6,2.1-2.1
		c0.9-0.5,1.9-0.8,3-0.8s2.1,0.3,3,0.8s1.5,1.2,2,2.1s0.7,1.9,0.7,3.1C536.5,395.2,536.5,395.4,536.4,395.6z M528.3,391.7
		c-0.7,0.6-1.1,1.4-1.2,2.4h7.4c-0.1-1-0.5-1.8-1.2-2.4s-1.5-0.9-2.5-0.9C529.8,390.8,528.9,391.1,528.3,391.7z"/>
	<path class="st4" d="M560,390.2c0.9,0.8,1.3,2,1.3,3.5v7h-2v-1.5c-0.3,0.5-0.8,0.9-1.5,1.2c-0.6,0.3-1.4,0.4-2.3,0.4
		c-1.3,0-2.3-0.3-3.1-0.9s-1.2-1.4-1.2-2.5c0-1,0.4-1.8,1.1-2.5s1.9-0.9,3.5-0.9h3.3v-0.4c0-0.9-0.3-1.6-0.8-2.1s-1.3-0.7-2.3-0.7
		c-0.7,0-1.4,0.1-2,0.3c-0.7,0.2-1.2,0.5-1.7,0.9l-0.9-1.6c0.6-0.5,1.3-0.8,2.1-1.1c0.8-0.3,1.7-0.4,2.6-0.4
		C557.9,389.1,559.1,389.5,560,390.2z M557.9,398.7c0.6-0.4,1-0.9,1.3-1.5v-1.6H556c-1.8,0-2.7,0.6-2.7,1.8c0,0.6,0.2,1,0.7,1.4
		c0.5,0.3,1.1,0.5,1.9,0.5C556.6,399.2,557.3,399.1,557.9,398.7z"/>
	<path class="st4" d="M596.1,390.3c0.8,0.8,1.3,2.1,1.3,3.7v6.6h-2.1v-6.4c0-1.1-0.3-2-0.8-2.5c-0.5-0.6-1.3-0.8-2.2-0.8
		c-1.1,0-1.9,0.3-2.5,1s-0.9,1.6-0.9,2.8v5.9h-2.1v-6.4c0-1.1-0.3-2-0.8-2.5c-0.5-0.6-1.3-0.8-2.2-0.8c-1.1,0-1.9,0.3-2.5,1
		s-0.9,1.6-0.9,2.8v5.9h-2.1v-11.5h2v1.7c0.4-0.6,1-1,1.7-1.4c0.7-0.3,1.5-0.5,2.3-0.5c0.9,0,1.7,0.2,2.4,0.5
		c0.7,0.4,1.2,0.9,1.6,1.6c0.4-0.7,1-1.2,1.8-1.6s1.7-0.6,2.6-0.6C594.1,389.1,595.3,389.5,596.1,390.3z"/>
</g>
<g>
	<path class="st4" d="M47.3,166.7c-7.3-2.4-13.1-5.4-17.3-9.2l5.5-11.3c4,3.5,9.1,6.3,15.3,8.5S63.4,158,70,158
		c8.7,0,15.2-1.4,19.5-4.3c4.3-2.8,6.4-6.6,6.4-11.4c0-3.5-1.2-6.3-3.5-8.5s-5.2-3.8-8.7-5c-3.4-1.2-8.3-2.5-14.6-3.9
		c-7.9-1.8-14.2-3.7-19.1-5.5c-4.8-1.8-9-4.7-12.4-8.5s-5.2-9-5.2-15.4c0-5.4,1.5-10.3,4.4-14.6c2.9-4.3,7.4-7.8,13.4-10.4
		s13.4-3.9,22.3-3.9c6.2,0,12.3,0.8,18.3,2.3s11.1,3.8,15.4,6.7l-4.9,11.6c-4.4-2.7-9.1-4.8-14.1-6.2c-5-1.4-9.9-2.1-14.7-2.1
		c-8.5,0-14.8,1.5-19.1,4.5c-4.2,3-6.4,6.9-6.4,11.6c0,3.5,1.2,6.3,3.6,8.5c2.4,2.2,5.4,3.9,8.9,5.1s8.4,2.5,14.4,3.8
		c7.9,1.8,14.2,3.7,19,5.5s8.9,4.6,12.4,8.4c3.4,3.8,5.2,8.8,5.2,15.2c0,5.3-1.5,10.2-4.5,14.6c-3,4.4-7.5,7.9-13.6,10.4
		c-6.1,2.6-13.6,3.8-22.5,3.8C62.2,170.3,54.6,169.1,47.3,166.7z"/>
	<path class="st4" d="M162,158.7c-7.8-7.7-11.7-18.8-11.7-33.3V67.7h15v57.1c0,21.7,9.8,32.6,29.5,32.6c9.6,0,16.9-2.7,22-8
		c5.1-5.4,7.6-13.5,7.6-24.6V67.7H239v57.6c0,14.6-3.9,25.7-11.7,33.4s-18.7,11.5-32.6,11.5C180.7,170.3,169.8,166.4,162,158.7z"/>
	<path class="st4" d="M378.5,67.7v101.4h-12.3l-62.9-75.6v75.6h-15V67.7h12.3l62.9,75.6V67.7H378.5z"/>
	<path class="st4" d="M498,135.4h-64.4c0.9,6.8,4,12.2,9.2,16.3s11.8,6.2,19.5,6.2c9.5,0,17.1-3.1,22.9-9.3l7.9,9
		c-3.6,4.1-8.1,7.1-13.4,9.3c-5.3,2.1-11.3,3.2-17.9,3.2c-8.4,0-15.8-1.7-22.3-5s-11.5-8-15-14s-5.3-12.7-5.3-20.3
		c0-7.4,1.7-14.1,5.2-20.1c3.4-6,8.2-10.6,14.2-14c6-3.3,12.8-5,20.4-5s14.3,1.7,20.3,5c5.9,3.3,10.6,8,13.9,14s5,12.8,5,20.6
		C498.3,132.2,498.2,133.6,498,135.4z M441.7,109.4c-4.6,4.1-7.4,9.4-8.2,15.9h50.9c-0.8-6.5-3.5-11.8-8.2-15.9
		c-4.6-4.1-10.4-6.2-17.3-6.2S446.4,105.4,441.7,109.4z"/>
	<path class="st4" d="M585.2,169.1l-22.9-29.4l-23.2,29.4h-16l31.3-39.3l-29.8-37.5h16l21.9,27.7l21.7-27.7h15.7L570,129.9
		l31.6,39.3L585.2,169.1L585.2,169.1z"/>
</g>
<g id="layer101">
	<path class="st5" d="M239.1,323.6c-2.6-0.2-6.2-0.7-8-1.1c-3.3-0.8-7.1-1.9-8.8-2.5c-1-0.4-1.8-0.7-1.9-0.7c-1,0-11.3-6-12.4-7.2
		c-0.1-0.2-1.2-1-2.3-1.9c-2.7-2.1-6.2-5.9-8.4-8.9c-1-1.3-2-2.7-2.2-3c-0.3-0.3-0.5-0.7-0.5-0.9c0-0.2-0.6-1.3-1.4-2.5
		c-0.8-1.2-1.4-2.3-1.4-2.5c0-0.1-0.4-1.2-0.9-2.3c-3.4-7.3-5-16.1-4.7-25c0.2-4.3,1.9-13,3.1-15.3c0.3-0.6,0.5-1.2,0.4-1.2
		c-0.1-0.1,0.1-0.6,0.4-1.2c0.3-0.6,1.1-2.3,1.9-3.8c0.7-1.6,1.6-3.3,1.9-3.8s1.2-1.7,1.7-2.7c3.3-5.1,9.9-11.9,14-14.4
		c0.3-0.1,1.4-0.9,2.4-1.6c1.1-0.7,2.6-1.6,3.4-2c0.8-0.4,1.4-0.7,1.5-0.8c0.1-0.1,0.2-0.2,0.4-0.2c0.1,0,1.1-0.4,2.1-0.9
		c2.3-1.1,6-2.4,8.5-2.9c1-0.3,2.4-0.6,3-0.7c2.1-0.5,4.5-0.8,6.6-1c1.1-0.1,2.1-0.2,2.2-0.3c0.3-0.3,2.7-0.2,6.9,0.3
		c5.2,0.5,8.5,1.2,12.8,2.6c2.2,0.7,7,2.7,7.5,3c0.2,0.2,1.7,1.1,3.4,1.9c3.5,1.9,5.7,3.5,9,6.5c5.4,5,9.8,10.7,12.5,16.1
		c0.7,1.4,1.3,2.6,1.4,2.7c0.2,0.1,0.6,1.2,0.7,1.9c0,0.1,0.3,0.8,0.6,1.6c1.2,2.5,3.1,11.3,3.3,15.2c0,0.8,0.2,2.6,0.3,3.9
		c0.1,1.5,0.1,2.5-0.1,2.7c-0.2,0.2-0.4,1.7-0.5,3.3c-0.4,5.6-2.1,11.7-5,17.8c-4.1,8.7-9.5,15.2-17.2,21
		c-6.3,4.7-12.2,7.4-21.3,9.6C249.4,323.3,243.3,323.9,239.1,323.6z"/>
</g>
<g id="layer102">
	<path class="st6" d="M239.1,323.6c-2.6-0.2-6.2-0.7-8-1.1c-3.3-0.8-7.1-1.9-8.8-2.5c-1-0.4-1.8-0.7-1.9-0.7c-1,0-11.3-6-12.4-7.2
		c-0.1-0.2-1.2-1-2.3-1.9c-2.7-2.1-6.2-5.9-8.4-8.9c-1-1.3-2-2.7-2.2-3c-0.3-0.3-0.5-0.7-0.5-0.9c0-0.2-0.6-1.3-1.4-2.5
		c-0.8-1.2-1.4-2.3-1.4-2.5c0-0.1-0.4-1.2-0.9-2.3c-3.4-7.3-5-16.1-4.7-25c0.2-4.3,1.9-13,3.1-15.3c0.3-0.6,0.5-1.2,0.4-1.2
		c-0.1-0.1,0.1-0.6,0.4-1.2c0.3-0.6,1.1-2.3,1.9-3.8c0.7-1.6,1.6-3.3,1.9-3.8s1.2-1.7,1.7-2.7c3.3-5.1,9.9-11.9,14-14.4
		c0.3-0.1,1.4-0.9,2.4-1.6c1.1-0.7,2.6-1.6,3.4-2c0.8-0.4,1.4-0.7,1.5-0.8c0.1-0.1,0.2-0.2,0.4-0.2c0.1,0,1.1-0.4,2.1-0.9
		c2.3-1.1,6-2.4,8.5-2.9c1-0.3,2.4-0.6,3-0.7c2.1-0.5,4.5-0.8,6.6-1c1.1-0.1,2.1-0.2,2.2-0.3c0.3-0.3,2.7-0.2,6.9,0.3
		c5.2,0.5,8.5,1.2,12.8,2.6c2.2,0.7,7,2.7,7.5,3c0.2,0.2,1.7,1.1,3.4,1.9c3.5,1.9,5.7,3.5,9,6.5c5.4,5,9.8,10.7,12.5,16.1
		c0.7,1.4,1.3,2.6,1.4,2.7c0.2,0.1,0.6,1.2,0.7,1.9c0,0.1,0.3,0.8,0.6,1.6c1.2,2.5,3.1,11.3,3.3,15.2c0,0.8,0.2,2.6,0.3,3.9
		c0.1,1.5,0.1,2.5-0.1,2.7c-0.2,0.2-0.4,1.7-0.5,3.3c-0.4,5.6-2.1,11.7-5,17.8c-4.1,8.7-9.5,15.2-17.2,21
		c-6.3,4.7-12.2,7.4-21.3,9.6C249.4,323.3,243.3,323.9,239.1,323.6z M234.5,276.4c3.1-0.2,3.1-0.2,3.7-1.1c0.3-0.5,0.8-1.9,1.1-3.1
		c0.3-1.2,0.5-2.5,0.6-2.8c0.1-0.4,0.2-0.9,0.3-1.2c0.1-0.3,0.2-0.8,0.3-1c0.2-0.8,1-2.3,1.4-2.6c0.3-0.3,0.5-0.3,0.9,0
		c0.6,0.5,0.8,1.2,2,5.6c1.1,4.3,1.7,5.8,2.3,6.1c0.3,0.1,3.9,0.3,8.1,0.3c7.3,0.1,7.6,0.1,8.6-0.5c1.1-0.6,1.9-2.4,2.7-5.5
		c0.9-3.4,1.3-4.7,2.6-7.6c1.1-2.4,1.3-3,1.2-4.2c-0.2-1.7-1-2.7-2.7-3.1c-0.8-0.2-5.4-0.1-13.5,0.2c-6.8,0.2-13.8,0.4-15.6,0.3
		c-10.9-0.4-17.2-0.6-21.1-0.5c-0.6,0-1.2,0.3-1.9,1c-0.9,0.9-1,1.1-1,2.4c0,1.2,0.3,2,1.3,3.9c1.1,2.2,1.7,3.9,2.8,8.1
		c0.2,0.6,0.4,1.3,0.5,1.6c0.2,0.6,0.2,0.6,0.5,1.4c0.3,0.9,1.5,2,2.4,2.3C222.5,276.6,230.4,276.6,234.5,276.4z"/>
	<path class="st6" d="M222.6,275.3c-1.6-0.2-2.1-0.9-3.5-6.1c-0.7-2.6-1.6-5.1-2.4-6.7c-1.5-2.9-1.6-3.9-0.6-4.9
		c0.6-0.7,0.8-0.7,4.6-0.7c2.1,0,7.9,0.2,12.7,0.3c6.9,0.3,10.8,0.3,17.6,0c10-0.4,15.5-0.5,16.5-0.2c0.7,0.2,1.5,1.4,1.5,2.3
		c0,0.3-0.6,1.8-1.4,3.5c-0.8,1.6-1.8,4.5-2.3,6.3c-1.1,4-1.8,5.7-2.7,6c-0.3,0.1-3.9,0.2-7.8,0.1c-6.2-0.1-7.3-0.1-7.5-0.5
		c-0.2-0.2-0.7-2.1-1.2-4.2c-1-4.1-1.9-6.4-3.1-7.2c-0.7-0.5-0.8-0.5-1.6-0.1c-1.2,0.6-2.1,2.7-3,6.8c-0.4,1.9-0.9,3.8-1.1,4.3
		l-0.4,0.9h-2.4c-1.3,0-4.3,0.1-6.6,0.1C225.6,275.4,223.2,275.4,222.6,275.3z M233.9,273.6c1.9-0.5,2.1-0.9,3.3-6.3
		c1.4-6.1,1.4-6.7,0.2-7.7c-0.8-0.6-1.1-0.7-2.3-0.6l-1.4,0.1l-1.6,2.8c-5.6,9.8-6.5,11.5-6.5,11.7
		C225.6,273.8,232.5,273.9,233.9,273.6z M261.6,273.4c0.9-0.6,1-0.8,2.9-6.8c1.2-3.7,1.7-5.6,1.5-6.1c-0.2-1.1-1.4-1.9-2.7-1.9h-1
		l-4.2,7.4c-2.3,4.1-4.2,7.5-4.3,7.6c-0.1,0.1,1.5,0.2,3.5,0.2C260.2,273.8,261.1,273.8,261.6,273.4z M254.3,265.7
		c2.1-3.6,3.8-6.6,3.8-6.7c0-0.1-0.6-0.1-1.2-0.1h-1.2l-3.4,6c-2.9,5.1-3.4,6.1-3.3,6.8c0.1,0.5,0.3,1,0.5,1.3
		C249.8,273.5,249.7,273.7,254.3,265.7z M226.4,264.7l3.4-5.9l-1.2-0.1c-1.4-0.1-1.1-0.5-4.6,5.6l-2.7,4.8l0.5,1.5
		c0.5,1.4,0.5,1.5,0.8,0.8C222.8,270.9,224.5,267.9,226.4,264.7z M250.6,264.5c1.2-2.1,2.4-4.2,2.7-4.7l0.6-1l-0.8,0.1
		c-0.8,0.1-0.9,0.2-3.6,5c-1.6,2.9-1.7,3-1.5,3.8c0.1,0.4,0.3,0.7,0.3,0.7C248.3,268.4,249.4,266.6,250.6,264.5z M223.2,262.8
		c2.7-4.9,2.6-4.5,1.8-4.5c-0.6,0-1,0.6-2.7,3.6c-1.5,2.7-2,3.7-1.9,4.2c0.1,0.4,0.3,0.7,0.4,0.7C220.8,266.8,221.9,265,223.2,262.8
		z M248.2,264.5c0.3-0.5,0.4-0.8,0.3-0.8s0-0.2,0.2-0.5c0.2-0.3,0.5-0.7,0.6-0.9c0.1-0.2,0.5-0.9,0.9-1.6c0.4-0.6,0.7-1.2,0.7-1.3
		c0-0.1-0.6-0.2-1.3-0.2c-1,0-1.4,0.1-2.1,0.8c-0.5,0.5-0.8,1.1-0.8,1.5c0,1,0.6,3.9,0.8,3.9C247.7,265.4,248,265,248.2,264.5z
		 M220.5,263.4c0.2-0.3,0.2-0.6,0.1-0.6c-0.1,0-0.1-0.1,0.1-0.2c0.3-0.3,0.8-1,1.4-2.3c0.3-0.5,0.7-1.2,0.9-1.5
		c0.4-0.5,0.3-0.5-0.9-0.5c-1.7,0-2.4,0.4-2.9,1.6c-0.3,0.8-0.3,1.1,0.1,2.5C219.8,264.1,220,264.3,220.5,263.4z"/>
</g>
<g id="layer103">
	<path class="st7" d="M239.1,323.6c-2.6-0.2-6.2-0.7-8-1.1c-3.3-0.8-7.1-1.9-8.8-2.5c-1-0.4-1.8-0.7-1.9-0.7c-1,0-11.3-6-12.4-7.2
		c-0.1-0.2-1.2-1-2.3-1.9c-2.7-2.1-6.2-5.9-8.4-8.9c-1-1.3-2-2.7-2.2-3c-0.3-0.3-0.5-0.7-0.5-0.9c0-0.2-0.6-1.3-1.4-2.5
		c-0.8-1.2-1.4-2.3-1.4-2.5c0-0.1-0.4-1.2-0.9-2.3c-3.4-7.3-5-16.1-4.7-25c0.2-4.3,1.9-13,3.1-15.3c0.3-0.6,0.5-1.2,0.4-1.2
		c-0.1-0.1,0.1-0.6,0.4-1.2c0.3-0.6,1.1-2.3,1.9-3.8c0.7-1.6,1.6-3.3,1.9-3.8s1.2-1.7,1.7-2.7c3.3-5.1,9.9-11.9,14-14.4
		c0.3-0.1,1.4-0.9,2.4-1.6c1.1-0.7,2.6-1.6,3.4-2c0.8-0.4,1.4-0.7,1.5-0.8c0.1-0.1,0.2-0.2,0.4-0.2c0.1,0,1.1-0.4,2.1-0.9
		c2.3-1.1,6-2.4,8.5-2.9c1-0.3,2.4-0.6,3-0.7c2.1-0.5,4.5-0.8,6.6-1c1.1-0.1,2.1-0.2,2.2-0.3c0.3-0.3,2.7-0.2,6.9,0.3
		c5.2,0.5,8.5,1.2,12.8,2.6c2.2,0.7,7,2.7,7.5,3c0.2,0.2,1.7,1.1,3.4,1.9c3.5,1.9,5.7,3.5,9,6.5c5.4,5,9.8,10.7,12.5,16.1
		c0.7,1.4,1.3,2.6,1.4,2.7c0.2,0.1,0.6,1.2,0.7,1.9c0,0.1,0.3,0.8,0.6,1.6c1.2,2.5,3.1,11.3,3.3,15.2c0,0.8,0.2,2.6,0.3,3.9
		c0.1,1.5,0.1,2.5-0.1,2.7c-0.2,0.2-0.4,1.7-0.5,3.3c-0.4,5.6-2.1,11.7-5,17.8c-4.1,8.7-9.5,15.2-17.2,21
		c-6.3,4.7-12.2,7.4-21.3,9.6C249.4,323.3,243.3,323.9,239.1,323.6z M236,276.4c2.1-0.3,2.4-0.8,3.6-5.7c0.9-3.8,1.7-6,2.4-6.4
		c0.4-0.3,1.1,0.4,1.5,1.3c0.1,0.4,0.7,2.4,1.2,4.5c1.1,4.3,1.7,5.8,2.3,6.1c0.3,0.1,3.9,0.3,8.1,0.3c7.3,0.1,7.6,0.1,8.6-0.5
		c1.1-0.6,1.9-2.4,2.7-5.5c0.9-3.4,1.3-4.7,2.6-7.6c1.1-2.5,1.3-2.9,1.1-4.2c-0.2-1.9-1.2-2.9-3.2-3.1c-0.8-0.1-6.5,0-12.7,0.2
		c-10,0.4-12.7,0.4-23.9,0c-11.8-0.4-12.7-0.4-13.9,0c-2.7,1-2.9,3.3-0.8,7.5c1.1,2.3,1.9,4.6,2.9,8.8c0.6,2.3,1.6,3.9,2.8,4.3
		C221.9,276.7,234.1,276.6,236,276.4z"/>
	<path class="st7" d="M250.2,273.5c-0.3-0.3-0.4-0.3,4.9-9.4l3.1-5.4l2-0.1c1.1-0.1,2,0,1.9,0.2c0,0.1-2,3.6-4.3,7.6l-4.2,7.4h-1.6
		C251.2,273.8,250.4,273.7,250.2,273.5z"/>
	<path class="st7" d="M222.9,272.9c-0.4-0.4-0.6-0.8-0.6-0.9c0.1-0.1,1.8-3.2,3.9-6.7c4.1-7.3,3.7-6.8,6.4-6.3l1.2,0.2l-1.6,2.8
		c-0.9,1.6-2.7,4.8-4.1,7.3c-2.5,4.3-2.5,4.5-3.4,4.5C223.9,273.6,223.4,273.3,222.9,272.9z"/>
	<path class="st7" d="M248.3,269.6c-0.1-0.7,0.2-1.6,2.6-5.7c2.6-4.6,2.8-4.9,3.7-4.9l0.9-0.1l-1,1.6c-4.6,8-5.7,10-5.9,10
		C248.6,270.5,248.4,270.1,248.3,269.6z"/>
	<path class="st7" d="M221,267.9c-0.2-1-0.3-0.8,2.5-5.6c2-3.5,2.5-4.1,3.3-3.8c0.4,0.1,0,1-2.4,5.2c-1.6,2.8-2.9,5-3,5
		C221.2,268.8,221.1,268.4,221,267.9z"/>
	<path class="st7" d="M247.6,266.1c0-0.3,0.3-0.9,0.6-1.4c0.3-0.5,0.5-1,0.4-1c-0.1,0,0-0.2,0.2-0.5c0.4-0.5,0.7-0.9,1.6-2.8
		c0.5-0.8,0.9-1.3,1.2-1.3c0.3,0,0.5,0.1,0.5,0.1c0,0.1-0.5,0.9-1,1.9c-0.6,1-1.4,2.5-2,3.5C248.2,266.4,247.6,266.9,247.6,266.1z"
		/>
	<path class="st7" d="M220.1,264.8c-0.2-0.6-0.1-1.4,0.2-1.2c0.2,0.1,0.3-0.3,0.3-0.8c0-0.1,0.1-0.2,0.2-0.2c0.1,0,0.3-0.2,0.4-0.5
		c0.4-1.1,1.7-3.3,2.2-3.6c1-0.6,0.8,0.1-0.9,3.1C220.4,265.1,220.3,265.4,220.1,264.8z"/>
</g>
<g id="layer104">
	<path class="st8" d="M239.1,323.6c-2.6-0.2-6.2-0.7-8-1.1c-3.3-0.8-7.1-1.9-8.8-2.5c-1-0.4-1.8-0.7-1.9-0.7c-1,0-11.3-6-12.4-7.2
		c-0.1-0.2-1.2-1-2.3-1.9c-2.7-2.1-6.2-5.9-8.4-8.9c-1-1.3-2-2.7-2.2-3c-0.3-0.3-0.5-0.7-0.5-0.9c0-0.2-0.6-1.3-1.4-2.5
		c-0.8-1.2-1.4-2.3-1.4-2.5c0-0.1-0.4-1.2-0.9-2.3c-3.4-7.3-5-16.1-4.7-25c0.2-4.3,1.9-13,3.1-15.3c0.3-0.6,0.5-1.2,0.4-1.2
		c-0.1-0.1,0.1-0.6,0.4-1.2c0.3-0.6,1.1-2.3,1.9-3.8c0.7-1.6,1.6-3.3,1.9-3.8s1.2-1.7,1.7-2.7c3.3-5.1,9.9-11.9,14-14.4
		c0.3-0.1,1.4-0.9,2.4-1.6c1.1-0.7,2.6-1.6,3.4-2c0.8-0.4,1.4-0.7,1.5-0.8c0.1-0.1,0.2-0.2,0.4-0.2c0.1,0,1.1-0.4,2.1-0.9
		c2.3-1.1,6-2.4,8.5-2.9c1-0.3,2.4-0.6,3-0.7c2.1-0.5,4.5-0.8,6.6-1c1.1-0.1,2.1-0.2,2.2-0.3c0.3-0.3,2.7-0.2,6.9,0.3
		c5.2,0.5,8.5,1.2,12.8,2.6c2.2,0.7,7,2.7,7.5,3c0.2,0.2,1.7,1.1,3.4,1.9c3.5,1.9,5.7,3.5,9,6.5c5.4,5,9.8,10.7,12.5,16.1
		c0.7,1.4,1.3,2.6,1.4,2.7c0.2,0.1,0.6,1.2,0.7,1.9c0,0.1,0.3,0.8,0.6,1.6c1.2,2.5,3.1,11.3,3.3,15.2c0,0.8,0.2,2.6,0.3,3.9
		c0.1,1.5,0.1,2.5-0.1,2.7c-0.2,0.2-0.4,1.7-0.5,3.3c-0.4,5.6-2.1,11.7-5,17.8c-4.1,8.7-9.5,15.2-17.2,21
		c-6.3,4.7-12.2,7.4-21.3,9.6C249.4,323.3,243.3,323.9,239.1,323.6z M236,276.4c2.1-0.3,2.4-0.8,3.6-5.7c1-4.1,1.9-6.3,2.7-6.3
		c0.7,0,1.4,1.6,2.4,5.7c1.1,4.4,1.7,5.9,2.3,6.2c0.3,0.1,3.9,0.3,8.1,0.3c7.3,0.1,7.6,0.1,8.6-0.5c1.1-0.6,1.9-2.4,2.7-5.5
		c0.9-3.4,1.3-4.7,2.6-7.6c1.1-2.4,1.3-3,1.2-4.2c-0.2-1.7-1-2.7-2.7-3.1c-1-0.2-15.3,0.1-21.6,0.5c-1.2,0.1-8-0.1-15.2-0.3
		c-12.2-0.4-13.2-0.4-14.3,0c-2.7,1-2.9,3.3-0.8,7.5c1.1,2.3,1.9,4.6,2.9,8.8c0.6,2.3,1.6,3.9,2.8,4.3
		C221.9,276.7,234.1,276.6,236,276.4z"/>
</g>
<g id="layer105">
	<path class="st9" d="M241.4,317.3v-6.9h-1.7c-0.9,0-2.1-0.1-2.5-0.2l-0.9-0.2v6.8v6.8l-1.2-0.1l-1.2-0.1l-0.1-6.9l-0.1-6.9
		l-1.6-0.3c-0.9-0.2-1.7-0.3-1.8-0.3c-0.1,0-0.2,3.1-0.2,6.8v6.8l-1-0.2c-0.6-0.1-1.1-0.2-1.2-0.3c-0.1-0.1-0.2-1.1-0.2-2.3
		c0-1.2-0.1-2.1-0.2-2.1s-0.6,0.8-1.2,1.8c-0.6,1.2-1,1.8-1.3,1.7c-0.2-0.1-0.6-0.1-0.8-0.1c-1.6,0-1.5-0.3,4.2-10.6
		c0.5-0.8,0.8-1.6,0.8-1.7c0-0.1-1-0.6-2.1-1.1l-2.1-0.9l-0.8,2.7c-0.5,1.5-1.4,4.5-2.1,6.6l-1.2,3.8l-0.9-0.3
		c-1.3-0.4-1.4-0.6-0.9-1.9c0.2-0.7,0.5-1.6,0.6-2c0.1-0.4,0.3-1,0.3-1.3c0.1-0.3-0.7,0.4-1.8,1.4l-2,1.9l-1.2-0.5
		c-0.6-0.3-1.2-0.5-1.2-0.6c0-0.1,2.3-2.5,5.1-5.2l5.1-5.1l-1.7-0.9c-0.9-0.5-1.9-1.1-2.1-1.3c-0.4-0.3-1.2,0.4-5.4,4.7l-5.1,5
		l-0.9-0.5c-0.5-0.3-0.9-0.6-0.9-0.8c0-0.1,2.2-2.5,4.9-5.2l4.9-4.9l-1.1-1c-0.6-0.5-1.2-1-1.4-1c-0.1,0-2.4,2.1-5,4.7
		c-2.6,2.6-4.9,4.7-5,4.8c-0.1,0.1-0.6-0.2-1-0.6l-0.8-0.7l5-5l5-5l-1.5-1.7c-0.8-1-1.6-1.8-1.7-2c-0.1-0.1-2.5,2.1-5.2,4.8
		c-5.2,5.2-5.5,5.4-6.3,4c-0.4-0.7-0.2-0.8,4.8-5.9l5.1-5.1l-1-1.8c-0.6-1-1.1-1.9-1.2-1.9c-0.1-0.1-2.5,2.3-5.4,5.2l-5.3,5.3
		l-0.6-0.6c-0.3-0.3-0.6-0.8-0.6-1.1c0-0.3,1-1.4,2.2-2.7c1.4-1.4,1.9-2.2,1.6-2.1c-0.3,0.1-0.8,0.2-1.1,0.3
		c-0.3,0.1-1.3,0.4-2.3,0.7s-1.9,0.6-2.1,0.6c-0.3,0-1.2-1.9-1-2.1c0.1-0.1,0.8-0.3,1.5-0.5c0.8-0.2,3.6-1,6.2-1.9
		c2.7-0.8,5.1-1.5,5.4-1.6s0.7-0.2,0.9-0.2c0.3-0.1,0.1-0.8-0.6-2.4c-0.5-1.3-1.1-2.4-1.2-2.5c-0.1-0.1-0.6,0.1-1.2,0.4
		c-0.6,0.3-2.1,1.2-3.4,1.9c-1.3,0.7-3.1,1.6-4,2.1c-0.8,0.5-2.3,1.3-3.1,1.7l-1.6,0.8l-0.5-0.8c-0.3-0.5-0.5-1-0.5-1.2
		c0-0.2,1.2-1,2.5-1.8l2.6-1.4l-3.1-0.1c-3-0.1-3.1-0.1-3.4-0.8c-0.2-0.4-0.3-1-0.3-1.3c0-0.5,0.3-0.5,7.9-0.5c7.5,0,7.9,0,7.7-0.5
		c-0.1-0.3-0.3-1.1-0.5-1.8l-0.3-1.4h-7.8c-4.3,0-7.9-0.1-8-0.2c-0.1-0.1-0.2-0.7-0.3-1.3l-0.2-1h8h8l-0.2-1.4
		c-0.1-0.8-0.2-1.5-0.3-1.6c-0.1-0.1-3.5-0.1-7.7-0.1c-4.9,0-7.7-0.1-8-0.3c-0.2-0.2-0.4-0.7-0.4-1.2v-1h8h8v-1
		c0-0.6,0.1-1.7,0.2-2.5l0.2-1.5h-8.1c-5.4,0-8.1-0.1-8.2-0.3c-0.1-0.2-0.1-0.7,0-1.3l0.2-1h8.3h8.3l0.2-0.8c0.1-0.5,0.3-1,0.3-1.3
		c0.1-0.5-0.4-0.5-8.4-0.5h-8.5l0.2-1c0.1-0.6,0.3-1.2,0.5-1.2c0.1-0.1,2.4-0.2,5.1-0.2s4.8-0.1,4.9-0.1c0.1-0.1-1.7-1.1-4-2.3
		c-5.4-2.8-5.1-2.5-4.7-3.9l0.3-1.1l3.3,1.7c3.9,2.1,6.4,3.4,9.5,5.1c1.2,0.6,2.3,1.1,2.5,1c0.3-0.3,1.7-4.1,1.6-4.2
		c-0.1,0-2.7-0.8-6-1.8c-3.3-1-6.8-2-7.9-2.3c-1.1-0.3-2.1-0.7-2.2-0.9c-0.2-0.3,0.4-1.7,0.9-2c0.1-0.1,1.2,0.2,2.5,0.6
		c4,1.3,7.5,2.3,7.5,2.1c0-0.1-1.7-1.9-3.8-4c-2.1-2.1-3.8-3.9-3.8-4s0.3-0.6,0.6-1.1l0.6-1l6.3,6.3l6.3,6.3l0.5-0.6
		c0.3-0.4,0.7-1.1,1-1.6l0.5-1l-6.3-6.3c-5.6-5.6-6.3-6.4-6-6.9c0.9-1.7,0.8-1.7,7.3,4.8c3.4,3.4,6.3,6.1,6.4,6.1
		c0.3,0,1.5-1.4,1.7-2.1c0.1-0.3-1.4-2-5.9-6.5c-3.4-3.3-6.1-6.2-6.1-6.4c0-0.2,0.3-0.7,0.7-1l0.7-0.7l6.3,6.3l6.3,6.3l2-1.6l2-1.6
		l-6.4-6.4l-6.5-6.4l0.8-0.8c0.4-0.4,0.9-0.7,1-0.7c0.2,0,3.2,2.9,6.7,6.4l6.4,6.4l1.4-0.8c0.7-0.4,1.4-0.8,1.5-0.9
		c0.1-0.1-2.9-3.1-6.5-6.7l-6.6-6.6l0.8-0.6c0.4-0.3,0.9-0.6,1.1-0.6c0.2,0,2,1.7,4.1,3.8c2.1,2.1,3.9,3.8,4,3.8s0-0.5-0.2-1.2
		c-0.2-0.7-0.6-2.2-1-3.3c-0.4-1.2-0.9-2.9-1.2-3.8c-0.7-2.3-0.7-2.5,0.5-3c0.5-0.2,1-0.3,1.1-0.3c0.1,0.1,2.6,8.4,4.2,14
		c0.5,1.7,1,3.2,1.1,3.4c0.1,0.1,0.7,0,1.3-0.3c0.6-0.3,1.6-0.7,2.3-1c0.6-0.3,1.1-0.6,1.1-0.7c0-0.3-1-2.3-5.6-10.7
		c-1.6-2.9-2.9-5.4-2.9-5.4c0-0.1,0.5-0.4,1-0.6c1.2-0.5,1.1-0.7,3.7,4.2c1,2,2.1,3.8,2.3,3.9c0.3,0.2,0.3-0.9,0.3-4.9
		c0-2.8,0.1-5.2,0.1-5.2c0.1-0.1,0.6-0.2,1.1-0.3l1-0.2v9.5c0,10.6-0.2,9.8,2.1,9.1c0.9-0.2,1.3-0.5,1.4-1c0.1-0.3,0.2-4.6,0.2-9.4
		s0-8.9,0.1-8.9c0.1-0.1,0.6-0.2,1.1-0.3l1-0.2v9.1c0,5,0.1,9.3,0.2,9.4c0.1,0.2,0.8,0.3,1.7,0.2l1.5-0.1l0.1-9.5l0.1-9.5l1.2-0.1
		l1.2-0.1v9.5c0,7.3,0.1,9.5,0.4,9.6c0.2,0.1,1.3,0.1,2.5,0.2l2.2,0.1v-9.4V213l1.2,0.1l1.2,0.1l0.1,8.7c0.1,4.8,0.1,9.1,0.1,9.6
		c0.1,0.7,0.3,0.9,1.4,1.2c0.7,0.2,1.4,0.4,1.6,0.4c0.3,0,0.3-2.1,0.3-9.6c0-10.5-0.1-9.9,1.7-9.3l0.9,0.3l-0.1,4.9
		c0,2.7,0,4.9,0.1,4.9c0.1,0,0.4-0.6,0.8-1.4c1-2.1,3.4-6.6,3.7-6.9c0.3-0.3,2.3,0.2,2.3,0.5c0,0.2-3,5.8-6.4,12.2
		c-1.3,2.4-2.3,4.4-2.2,4.5c0.1,0.1,0.4,0.3,0.8,0.4c0.4,0.1,1.4,0.4,2.2,0.8c2.7,1.1,2.5,1.3,4-3.8c3.2-10.7,4-13,4-13.1
		c0.2-0.2,2.1,0.8,2.1,1.1c0,0.4-0.7,3-1.3,4.8c-0.6,1.9-1.5,4.9-1.4,5c0.1,0.1,1.7-1.6,3.7-3.6c2-2,3.7-3.7,3.8-3.7
		s0.6,0.3,1.2,0.6l1,0.6L267,229c-3.7,3.7-6.7,6.8-6.7,6.9c0,0.1,0.7,0.6,1.5,1l1.5,0.8l6.7-6.6l6.7-6.7l1,0.8l0.9,0.8l-6.5,6.5
		l-6.6,6.5l1.1,1c0.6,0.5,1.2,0.9,1.4,1c0.1,0,3.2-2.9,6.7-6.4l6.4-6.4l0.7,0.7c0.4,0.4,0.7,0.8,0.7,1c0,0.2-2.8,3.1-6.2,6.5
		c-3.4,3.4-6.2,6.3-6.2,6.4c0,0.1,0.7,1,1.5,2c0.8,1,1.5,1.8,1.6,1.9c0,0.1,3-2.8,6.5-6.3c3.8-3.8,6.6-6.4,6.8-6.3
		c0.2,0.1,0.5,0.6,0.7,1l0.4,0.8l-6.3,6.3c-3.5,3.5-6.3,6.4-6.3,6.5c0,0.1,0.4,0.9,0.9,1.8l0.9,1.6l6.5-6.5c6.9-6.9,6.6-6.7,7.5-5.1
		c0.3,0.6,0.2,0.8-3,4c-3.8,3.8-3.9,3.6,1.8,1.9c1.9-0.6,3.5-1,3.7-0.9c0.1,0.1,0.4,0.5,0.6,0.9c0.5,1.2,1.3,0.8-12.1,4.9
		c-2.1,0.6-4.3,1.3-4.4,1.4c-0.1,0.1,1.8,4.7,2,4.9c0.1,0.1,0.3,0,0.5-0.1c0.4-0.3,3-1.7,8.7-4.7c1.6-0.8,3.7-1.9,4.6-2.4
		c1.8-1,2.1-0.9,2.3,0.6l0.2,1l-3.3,1.7c-1.8,0.9-3.6,1.9-4,2.3l-0.7,0.6l4.5-0.1l4.5-0.1l0.3,0.7c0.2,0.4,0.3,1,0.3,1.3
		c0,0.5-0.3,0.5-8.7,0.5c-6.8,0-8.7,0.1-8.7,0.4c0,0.6,0.7,3,0.9,3.2c0.1,0.1,4,0.2,8.7,0.2c8,0,8.6,0.1,8.6,0.5
		c0.1,0.3,0,0.8-0.1,1.2l-0.2,0.7h-8.4h-8.3l0.1,1.6l0.1,1.6l8.4,0.1l8.4,0.1l0.1-0.6c0.1-0.4,0.1,0.2,0.1,1.2l0,1.8l-8.3,0.1
		c-4.5,0-8.3,0.1-8.4,0.1c-0.1,0.1-0.2,1.1-0.3,2.4l-0.2,2.3l0.8,0c0.5,0,4.1,0,8.2,0c8.2,0,7.6-0.1,7.2,1.8l-0.1,0.8l-8.2-0.1
		c-9-0.1-8.5-0.2-8.8,1.8c-0.1,0.5-0.3,1.1-0.3,1.4c-0.2,0.5,0.3,0.5,8.2,0.5c7.9,0,8.4,0,8.2,0.5c-0.1,0.3-0.3,0.8-0.3,1.2
		l-0.1,0.8l-3.4,0.1l-3.4,0.1l1.6,0.8c0.8,0.5,2.1,1.1,2.9,1.5l1.3,0.7l-0.5,1.1c-0.4,0.8-0.7,1-1,0.9c-0.2-0.1-2.3-1.2-4.6-2.4
		c-7.2-3.9-8.8-4.7-8.9-4.5c-0.1,0.1-0.4,1-0.7,1.9c-0.3,0.9-0.7,1.9-0.9,2.3c-0.2,0.4-0.3,0.7-0.2,0.8c0.2,0.2,3.1,1.1,10.5,3.2
		c2.1,0.6,4,1.2,4,1.2c0.2,0.2-0.8,2.2-1.2,2.2c-0.2,0-1.5-0.4-3-0.8s-2.7-0.8-2.7-0.8c-0.1,0.1,0.8,1,2,2.2s2.1,2.2,2.1,2.4
		c0,0.1-0.3,0.7-0.6,1.2l-0.6,1l-5.5-5.4c-3-3-5.6-5.4-5.7-5.3c-0.1,0.1-0.7,0.9-1.2,1.9l-1,1.8l5.3,5.3l5.3,5.3l-0.8,0.9l-0.8,0.9
		l-5.3-5.3l-5.3-5.3l-1.1,1.3l-1.1,1.3l5.2,5.2l5.2,5.2l-0.8,0.9l-0.8,0.9l-5.1-5.1l-5.2-5.1l-1.3,1.1c-0.7,0.6-1.6,1.3-1.9,1.5
		c-0.3,0.2-0.5,0.5-0.5,0.7c0,0.2,2.2,2.5,5,5.3l5,5l-0.8,0.6c-0.5,0.3-1,0.6-1.1,0.6c-0.1,0-2.5-2.2-5.2-4.9
		c-2.7-2.7-5-4.9-5.1-4.9c-0.1,0-0.9,0.5-1.8,1l-1.6,1l5.2,5.2l5.2,5.2l-1.1,0.6l-1.1,0.6l-1.9-1.9c-1.9-1.9-2.3-1.9-1.6-0.1
		c0.2,0.4,0.5,1.3,0.7,2l0.4,1.2l-1.2,0.5l-1.2,0.5l-0.2-0.6c-0.9-3-2.6-8.4-3.2-10.4c-0.6-2.2-0.8-2.5-1.2-2.2
		c-0.3,0.2-1.4,0.7-2.5,1.1c-1.1,0.5-1.9,0.9-1.9,1c0,0.1,0.7,1.4,1.4,2.8c2.9,5.2,4.9,9.2,4.8,9.3c-0.3,0.3-2,0.7-2.2,0.6
		c-0.1-0.1-0.7-1.1-1.3-2.2l-1-2l-0.1,2.6l-0.1,2.6l-1.2,0.3l-1.3,0.3v-7v-7l-0.8,0.2c-0.5,0.1-1.3,0.3-1.9,0.5l-1.1,0.3v6.9v6.9
		l-1.2,0.1l-1.2,0.1v-6.9V310l-1,0.2c-0.6,0.1-1.4,0.2-1.7,0.2h-0.6l-0.1,6.9l-0.1,6.8l-1.2,0.1l-1.2,0.1V317.3z M243.1,306
		c0.4-1.2,1.4-4.3,2.2-6.9c0.8-2.6,1.6-5.2,1.9-6c0.2-0.8,0.6-1.4,0.8-1.4c1.6,0,6.8-2.7,8.2-4.2c0.4-0.5,0.4-0.6-0.2-1.3l-0.6-0.8
		l-1.8,1.3c-2.8,2.1-5.4,3.1-4.9,1.9c0.1-0.3,0.4-1.1,0.6-1.9c0.2-0.8,0.8-2.6,1.2-4.1c0.5-1.5,0.9-2.9,0.9-3.2
		c0-0.4-0.6-0.5-5.2-0.5c-4.9,0-5.2,0-5.2-0.5c0-0.3,0.5-3.2,1-6.4c0.5-3.2,1-6,1-6.1c0-0.1,0.1-0.2,0.3-0.2c0.3,0,0.9,1.8,1.9,5.6
		c0.8,3.4,1.4,5,2.1,5.2c0.3,0.1,3.9,0.3,8.1,0.3c7.3,0.1,7.6,0.1,8.6-0.5c1.1-0.6,1.9-2.4,2.7-5.5c0.9-3.4,1.3-4.7,2.6-7.6
		c1.1-2.4,1.3-3,1.2-4.2c-0.2-1.7-1-2.7-2.8-3.1c-0.8-0.2-4.1-0.2-9.4,0c-4.5,0.2-9.3,0.3-10.8,0.4l-2.5,0.1l0.1-1.2
		c0.1-0.7,0.4-2.7,0.6-4.5c0.3-1.8,0.7-4.1,0.8-5.1s0.4-2.3,0.5-2.8c0.1-0.5,0.3-1.6,0.4-2.3c0.2-1.7,0.6-4.5,0.9-5.6
		c0.2-0.9,0.2-0.9-1.2-1.1c-0.8-0.1-3.2-0.2-5.5-0.2c-8.2,0-15.5,2.4-21.9,7.2c-11.4,8.5-16.9,22.1-14.7,36.1
		c0.8,5.1,3.2,10.9,6.3,15.3c2.1,3,6.4,7.3,9.2,9.2c6.3,4.3,13.7,6.7,20.5,6.7h1.6L243.1,306z"/>
	<path class="st9" d="M238.8,291.9c-0.2-0.1-1.4-0.2-2.5-0.4c-2.9-0.5-5.6-1.5-7.6-3l-1.7-1.2l0.6-0.7c0.8-0.8,0.9-0.8,2.2,0.2
		c2.8,2.2,6.6,3.1,13.1,3.1h4.4v1c0,0.8-0.1,1-0.9,1.1C245.6,292,239.7,292.1,238.8,291.9z"/>
</g>
</svg>
