<!DOCTYPE svg PUBLIC "-//W3C//DTD SVG 20010904//EN" "http://www.w3.org/TR/2001/REC-SVG-20010904/DTD/svg10.dtd">
<svg version="1.0" xmlns="http://www.w3.org/2000/svg" width="398px" height="396px" viewBox="0 0 3980 3960" preserveAspectRatio="xMidYMid meet">
<g id="layer101" fill="#0a0806" stroke="none">
 <path d="M1890 3954 c-91 -6 -219 -24 -284 -40 -116 -27 -251 -67 -313 -90 -34 -13 -64 -24 -68 -24 -35 0 -402 -213 -440 -255 -5 -6 -42 -37 -81 -68 -94 -76 -220 -210 -297 -316 -34 -47 -70 -95 -79 -105 -10 -11 -18 -25 -18 -31 0 -6 -22 -46 -50 -90 -28 -44 -50 -83 -50 -88 0 -4 -15 -41 -33 -80 -119 -258 -178 -570 -166 -887 6 -151 69 -461 111 -543 11 -22 17 -41 14 -44 -3 -3 3 -22 13 -42 11 -20 40 -81 66 -136 25 -55 56 -116 69 -135 13 -19 41 -62 62 -95 117 -179 352 -421 495 -510 9 -5 48 -31 86 -57 39 -26 92 -57 119 -70 27 -13 51 -26 52 -30 2 -5 8 -8 13 -8 4 0 39 -14 76 -31 83 -38 214 -84 302 -104 36 -9 84 -20 106 -25 73 -17 161 -30 234 -35 40 -2 76 -6 79 -9 9 -10 94 -7 243 9 184 19 301 43 454 92 79 25 248 94 265 108 8 6 62 38 120 69 125 68 203 124 319 230 192 176 349 378 442 571 24 50 47 92 50 95 6 5 21 44 25 66 1 5 11 30 23 55 43 88 110 399 116 539 1 30 6 92 10 137 5 53 4 87 -2 95 -6 7 -13 60 -17 116 -13 200 -73 413 -177 630 -147 309 -336 538 -611 745 -225 168 -434 262 -755 341 -160 39 -375 60 -523 50z"/>
 </g>
<g id="layer102" fill="#48341a" stroke="none">
 <path d="M1890 3954 c-91 -6 -219 -24 -284 -40 -116 -27 -251 -67 -313 -90 -34 -13 -64 -24 -68 -24 -35 0 -402 -213 -440 -255 -5 -6 -42 -37 -81 -68 -94 -76 -220 -210 -297 -316 -34 -47 -70 -95 -79 -105 -10 -11 -18 -25 -18 -31 0 -6 -22 -46 -50 -90 -28 -44 -50 -83 -50 -88 0 -4 -15 -41 -33 -80 -119 -258 -178 -570 -166 -887 6 -151 69 -461 111 -543 11 -22 17 -41 14 -44 -3 -3 3 -22 13 -42 11 -20 40 -81 66 -136 25 -55 56 -116 69 -135 13 -19 41 -62 62 -95 117 -179 352 -421 495 -510 9 -5 48 -31 86 -57 39 -26 92 -57 119 -70 27 -13 51 -26 52 -30 2 -5 8 -8 13 -8 4 0 39 -14 76 -31 83 -38 214 -84 302 -104 36 -9 84 -20 106 -25 73 -17 161 -30 234 -35 40 -2 76 -6 79 -9 9 -10 94 -7 243 9 184 19 301 43 454 92 79 25 248 94 265 108 8 6 62 38 120 69 125 68 203 124 319 230 192 176 349 378 442 571 24 50 47 92 50 95 6 5 21 44 25 66 1 5 11 30 23 55 43 88 110 399 116 539 1 30 6 92 10 137 5 53 4 87 -2 95 -6 7 -13 60 -17 116 -13 200 -73 413 -177 630 -147 309 -336 538 -611 745 -225 168 -434 262 -755 341 -160 39 -375 60 -523 50z m-165 -1673 c109 -6 109 -6 130 -38 12 -17 29 -66 39 -110 9 -43 19 -88 21 -100 3 -13 7 -32 10 -43 3 -11 7 -28 9 -37 7 -29 35 -80 51 -93 12 -10 18 -10 31 1 22 18 30 42 70 199 39 153 59 206 83 216 9 4 138 9 286 11 260 4 271 4 303 -17 38 -23 69 -86 96 -195 31 -121 47 -167 93 -268 40 -86 45 -105 41 -149 -6 -61 -37 -95 -97 -109 -29 -6 -190 -4 -479 6 -241 8 -489 13 -552 10 -385 -15 -611 -20 -748 -16 -23 1 -43 11 -68 35 -32 31 -36 40 -36 86 1 41 10 70 45 138 39 77 60 137 99 287 6 22 13 47 16 55 8 21 8 22 16 51 9 32 52 72 86 80 32 8 312 8 455 0z"/>
 <path d="M1303 2243 c-57 -6 -73 -33 -123 -217 -25 -91 -58 -182 -85 -237 -52 -102 -56 -139 -20 -174 23 -24 28 -25 162 -24 76 0 279 6 451 12 243 10 381 10 625 0 353 -13 551 -16 585 -7 24 7 52 50 52 80 0 10 -22 65 -49 123 -27 58 -63 159 -80 224 -38 141 -65 203 -94 214 -12 4 -137 7 -277 5 -220 -2 -257 -5 -267 -19 -7 -8 -26 -76 -44 -150 -34 -146 -69 -226 -110 -256 -25 -18 -28 -18 -57 -3 -42 22 -74 94 -107 241 -15 66 -33 134 -40 152 l-14 33 -84 0 c-46 0 -151 2 -233 4 -82 2 -168 2 -191 -1z m401 -62 c66 -16 75 -33 117 -223 48 -217 49 -238 8 -273 -27 -22 -40 -25 -81 -23 l-50 3 -57 100 c-198 347 -231 406 -231 413 0 12 246 14 294 3z m984 -7 c31 -21 35 -30 102 -240 41 -130 59 -198 54 -216 -8 -38 -49 -68 -94 -68 l-37 0 -149 262 c-82 144 -150 265 -152 270 -2 4 54 8 125 8 100 0 133 -3 151 -16z m-262 -272 c74 -129 134 -235 134 -238 0 -2 -20 -4 -44 -4 l-44 0 -122 211 c-104 181 -121 216 -116 242 3 16 12 37 18 45 16 19 11 26 174 -256z m-987 -37 l121 -210 -42 -3 c-51 -4 -39 -18 -163 198 l-97 169 17 52 c17 51 18 52 30 28 8 -13 68 -118 134 -234z m856 -5 c43 -74 86 -150 97 -168 l21 -34 -28 4 c-28 3 -31 8 -127 178 -58 103 -61 108 -54 135 4 15 9 26 10 24 2 -2 39 -65 81 -139z m-970 -62 c97 -172 92 -158 63 -158 -20 0 -35 20 -96 126 -54 95 -70 132 -66 150 3 13 9 24 13 24 3 -1 42 -64 86 -142z m888 62 c10 -16 15 -30 11 -30 -4 0 0 -8 8 -17 8 -10 18 -25 22 -33 3 -8 17 -33 31 -55 13 -22 24 -43 25 -47 0 -5 -21 -8 -46 -8 -37 0 -51 5 -75 29 -16 16 -29 40 -29 54 0 35 22 137 29 137 4 0 15 -13 24 -30z m-983 -40 c6 -11 7 -20 3 -20 -4 0 -3 -4 2 -8 12 -9 29 -35 51 -82 10 -19 24 -43 32 -52 14 -17 12 -18 -32 -18 -60 0 -84 13 -101 55 -12 28 -12 40 2 89 17 60 26 68 43 36z"/>
 </g>
<g id="layer103" fill="#505050" stroke="none">
 <path d="M1890 3954 c-91 -6 -219 -24 -284 -40 -116 -27 -251 -67 -313 -90 -34 -13 -64 -24 -68 -24 -35 0 -402 -213 -440 -255 -5 -6 -42 -37 -81 -68 -94 -76 -220 -210 -297 -316 -34 -47 -70 -95 -79 -105 -10 -11 -18 -25 -18 -31 0 -6 -22 -46 -50 -90 -28 -44 -50 -83 -50 -88 0 -4 -15 -41 -33 -80 -119 -258 -178 -570 -166 -887 6 -151 69 -461 111 -543 11 -22 17 -41 14 -44 -3 -3 3 -22 13 -42 11 -20 40 -81 66 -136 25 -55 56 -116 69 -135 13 -19 41 -62 62 -95 117 -179 352 -421 495 -510 9 -5 48 -31 86 -57 39 -26 92 -57 119 -70 27 -13 51 -26 52 -30 2 -5 8 -8 13 -8 4 0 39 -14 76 -31 83 -38 214 -84 302 -104 36 -9 84 -20 106 -25 73 -17 161 -30 234 -35 40 -2 76 -6 79 -9 9 -10 94 -7 243 9 184 19 301 43 454 92 79 25 248 94 265 108 8 6 62 38 120 69 125 68 203 124 319 230 192 176 349 378 442 571 24 50 47 92 50 95 6 5 21 44 25 66 1 5 11 30 23 55 43 88 110 399 116 539 1 30 6 92 10 137 5 53 4 87 -2 95 -6 7 -13 60 -17 116 -13 200 -73 413 -177 630 -147 309 -336 538 -611 745 -225 168 -434 262 -755 341 -160 39 -375 60 -523 50z m-111 -1672 c73 -9 86 -29 127 -201 32 -134 61 -212 84 -226 14 -9 40 13 52 45 5 14 25 86 44 160 39 153 59 206 83 216 9 4 138 9 286 11 260 4 271 4 303 -17 38 -23 69 -86 96 -195 31 -121 47 -167 93 -268 40 -87 45 -104 40 -150 -6 -66 -43 -102 -113 -111 -27 -4 -229 0 -449 8 -355 13 -450 13 -848 -1 -417 -14 -451 -14 -492 1 -95 37 -104 117 -29 265 40 81 68 163 104 311 20 81 57 137 100 153 21 8 453 6 519 -1z"/>
 <path d="M2283 2179 c-12 -12 -13 -10 175 -334 l110 -190 72 -3 c40 -2 70 1 68 6 -1 4 -70 126 -152 270 l-150 262 -56 0 c-31 0 -61 -5 -67 -11z"/>
 <path d="M1314 2155 c-14 -14 -23 -29 -21 -33 2 -4 64 -112 137 -239 146 -257 130 -240 227 -225 l41 7 -57 100 c-31 55 -97 171 -147 257 -87 154 -90 158 -122 158 -22 0 -41 -8 -58 -25z"/>
 <path d="M2216 2039 c-5 -26 8 -56 93 -202 93 -162 100 -172 131 -175 l32 -3 -34 58 c-162 283 -203 353 -209 353 -3 0 -9 -14 -13 -31z"/>
 <path d="M1246 1979 c-7 -35 -9 -30 87 -197 71 -125 89 -144 118 -133 14 5 -1 37 -85 183 -55 98 -104 177 -107 178 -4 0 -9 -14 -13 -31z"/>
 <path d="M2190 1915 c0 -10 9 -33 21 -51 11 -19 17 -34 14 -34 -4 0 -1 -7 6 -16 15 -18 24 -33 58 -98 16 -29 31 -46 43 -46 10 0 18 2 18 4 0 2 -16 33 -36 68 -20 34 -51 90 -70 123 -33 61 -54 80 -54 50z"/>
 <path d="M1216 1869 c-7 -22 -4 -49 6 -43 7 5 12 -10 9 -28 0 -5 3 -8 8 -8 5 0 11 -8 15 -17 13 -38 62 -116 78 -127 35 -21 27 4 -33 110 -71 125 -77 133 -83 113z"/>
 </g>
<g id="layer104" fill="#f9d54b" stroke="none">
 <path d="M1890 3954 c-91 -6 -219 -24 -284 -40 -116 -27 -251 -67 -313 -90 -34 -13 -64 -24 -68 -24 -35 0 -402 -213 -440 -255 -5 -6 -42 -37 -81 -68 -94 -76 -220 -210 -297 -316 -34 -47 -70 -95 -79 -105 -10 -11 -18 -25 -18 -31 0 -6 -22 -46 -50 -90 -28 -44 -50 -83 -50 -88 0 -4 -15 -41 -33 -80 -119 -258 -178 -570 -166 -887 6 -151 69 -461 111 -543 11 -22 17 -41 14 -44 -3 -3 3 -22 13 -42 11 -20 40 -81 66 -136 25 -55 56 -116 69 -135 13 -19 41 -62 62 -95 117 -179 352 -421 495 -510 9 -5 48 -31 86 -57 39 -26 92 -57 119 -70 27 -13 51 -26 52 -30 2 -5 8 -8 13 -8 4 0 39 -14 76 -31 83 -38 214 -84 302 -104 36 -9 84 -20 106 -25 73 -17 161 -30 234 -35 40 -2 76 -6 79 -9 9 -10 94 -7 243 9 184 19 301 43 454 92 79 25 248 94 265 108 8 6 62 38 120 69 125 68 203 124 319 230 192 176 349 378 442 571 24 50 47 92 50 95 6 5 21 44 25 66 1 5 11 30 23 55 43 88 110 399 116 539 1 30 6 92 10 137 5 53 4 87 -2 95 -6 7 -13 60 -17 116 -13 200 -73 413 -177 630 -147 309 -336 538 -611 745 -225 168 -434 262 -755 341 -160 39 -375 60 -523 50z m-111 -1672 c73 -9 86 -29 127 -202 35 -146 68 -225 94 -225 24 0 49 58 86 201 39 157 59 210 83 220 9 4 138 9 286 11 260 4 271 4 303 -17 38 -23 69 -86 96 -195 31 -121 47 -167 93 -268 40 -86 45 -105 41 -149 -6 -60 -36 -95 -94 -109 -35 -8 -541 2 -764 16 -41 2 -283 -3 -538 -12 -431 -14 -466 -14 -507 1 -95 37 -104 117 -29 265 40 81 68 163 104 311 20 81 57 137 100 153 21 8 453 6 519 -1z"/>
 </g>
<g id="layer105" fill="#fefefb" stroke="none">
 <path d="M1970 3716 l0 -246 -59 0 c-32 0 -73 -3 -90 -6 l-31 -6 0 241 0 242 -42 -3 -43 -3 -3 -246 -2 -246 -57 -12 c-31 -6 -60 -11 -65 -11 -4 0 -8 109 -8 241 l0 242 -36 -6 c-20 -3 -39 -8 -41 -11 -3 -3 -6 -39 -6 -80 0 -42 -4 -76 -8 -76 -4 0 -22 29 -41 65 -21 43 -37 64 -46 60 -8 -3 -21 -5 -30 -5 -56 -1 -52 -9 149 -377 16 -29 29 -56 29 -61 0 -4 -34 -22 -75 -39 l-74 -31 -30 96 c-17 53 -49 158 -73 233 l-42 136 -31 -10 c-46 -15 -50 -22 -32 -69 8 -24 18 -55 21 -70 3 -14 9 -34 12 -45 4 -10 -25 13 -63 50 l-70 68 -41 -17 c-23 -9 -42 -19 -42 -23 0 -3 81 -87 180 -186 l179 -179 -60 -32 c-33 -18 -67 -38 -75 -45 -13 -11 -42 14 -193 165 l-179 178 -31 -18 c-17 -10 -31 -23 -31 -29 0 -5 78 -88 172 -183 l173 -173 -40 -34 c-22 -19 -44 -35 -49 -35 -5 0 -85 75 -178 168 -92 92 -172 168 -177 170 -5 2 -22 -8 -37 -22 l-29 -25 177 -178 177 -178 -53 -62 c-28 -34 -55 -65 -59 -70 -4 -4 -88 73 -185 170 -186 185 -195 192 -223 141 -13 -24 -8 -30 170 -208 l182 -182 -37 -65 c-21 -35 -39 -66 -41 -69 -2 -2 -88 81 -192 184 l-188 188 -22 -23 c-11 -12 -21 -30 -21 -38 0 -9 35 -51 78 -94 48 -50 69 -77 55 -73 -12 4 -30 8 -40 10 -10 2 -47 13 -82 25 -35 12 -68 21 -73 21 -11 0 -43 -68 -36 -75 3 -3 27 -12 54 -19 27 -8 126 -37 219 -66 94 -28 179 -54 190 -57 11 -3 26 -6 32 -8 9 -3 2 -29 -22 -86 -19 -45 -38 -85 -41 -90 -3 -5 -22 2 -42 15 -20 12 -75 42 -122 66 -47 25 -110 58 -140 76 -30 17 -80 45 -111 61 l-56 30 -17 -27 c-9 -16 -16 -34 -16 -42 0 -7 41 -36 90 -63 l91 -50 -111 -3 c-108 -3 -111 -3 -120 -28 -6 -14 -10 -34 -10 -45 0 -18 10 -19 281 -19 264 0 281 -1 274 -17 -3 -10 -11 -39 -16 -65 l-11 -48 -278 0 c-153 0 -281 -3 -284 -8 -2 -4 -7 -24 -11 -45 l-7 -37 282 0 283 0 -6 -51 c-4 -29 -8 -53 -10 -55 -2 -2 -124 -4 -272 -4 -175 -1 -274 -5 -282 -12 -7 -6 -13 -26 -13 -44 l0 -34 285 0 285 0 0 -37 c0 -21 3 -62 6 -90 l7 -53 -286 0 c-191 0 -288 -4 -292 -11 -4 -6 -4 -26 -1 -45 l7 -34 293 0 294 0 6 -27 c4 -16 9 -36 12 -45 5 -17 -14 -18 -296 -18 l-302 0 7 -37 c4 -21 11 -41 17 -44 5 -3 86 -6 179 -6 93 0 171 -2 174 -4 2 -3 -61 -39 -140 -80 -191 -98 -181 -90 -166 -139 l12 -40 117 61 c138 73 228 121 335 179 44 23 83 38 87 34 9 -10 62 -146 58 -149 -2 -1 -97 -30 -213 -65 -116 -34 -241 -72 -280 -83 -38 -12 -73 -25 -77 -31 -7 -10 15 -61 31 -70 4 -3 44 6 87 20 143 47 264 81 264 75 0 -3 -61 -67 -135 -141 -74 -74 -135 -137 -135 -140 0 -3 9 -20 21 -39 l21 -34 224 224 225 224 18 -23 c9 -13 26 -39 36 -58 l19 -35 -223 -223 c-197 -197 -222 -226 -213 -243 32 -59 29 -61 260 170 120 119 222 217 227 216 11 0 52 -49 61 -74 5 -12 -50 -72 -210 -230 -119 -118 -216 -221 -216 -228 0 -7 11 -24 25 -37 l26 -24 223 223 223 223 71 -57 70 -58 -228 -227 -229 -227 28 -27 c15 -14 31 -26 36 -26 6 0 112 102 236 226 l227 227 49 -28 c26 -15 50 -30 53 -32 2 -2 -101 -109 -229 -237 l-233 -233 27 -22 c15 -11 33 -21 39 -21 6 0 72 61 146 135 74 74 138 135 142 135 4 0 1 -19 -7 -42 -7 -24 -23 -77 -35 -118 -13 -41 -31 -102 -41 -134 -26 -82 -25 -90 17 -105 19 -7 37 -11 39 -9 3 3 91 296 149 496 18 61 36 115 39 119 4 3 25 -1 47 -10 22 -10 58 -24 80 -34 22 -9 40 -20 40 -26 0 -10 -37 -81 -199 -379 -55 -103 -101 -190 -101 -193 0 -3 16 -13 36 -21 44 -18 38 -26 131 149 37 71 73 133 80 138 9 8 12 -33 12 -172 0 -100 2 -184 5 -186 2 -2 20 -7 40 -10 l36 -6 0 337 c0 375 -7 346 74 324 32 -8 46 -18 50 -34 3 -11 6 -162 6 -334 0 -172 1 -315 4 -317 2 -2 20 -7 40 -10 l36 -6 0 324 c0 178 4 329 8 334 4 6 30 9 59 7 l53 -4 2 -336 3 -337 43 -3 42 -3 0 336 c0 260 3 337 13 340 6 2 47 5 90 8 l77 4 0 -334 0 -334 43 3 42 3 2 310 c2 171 4 323 5 339 3 25 9 31 48 42 25 8 51 14 58 14 9 0 12 -75 12 -340 0 -371 -4 -351 59 -329 l31 11 -3 174 c-1 96 0 174 3 174 3 0 15 -21 27 -48 36 -76 120 -233 131 -244 10 -10 82 6 82 19 0 6 -105 207 -226 432 -46 85 -81 157 -79 161 3 4 15 10 27 13 13 3 48 15 78 27 95 38 87 45 142 -135 115 -378 140 -459 143 -463 6 -7 75 28 75 38 0 14 -25 106 -47 170 -22 67 -52 174 -49 177 2 2 60 -55 130 -127 70 -71 130 -130 134 -130 4 0 22 9 41 21 l34 21 -236 236 c-131 131 -237 240 -237 244 0 3 24 20 53 37 l52 30 236 -235 236 -236 34 30 33 30 -232 232 -233 232 38 34 c21 18 42 33 48 34 5 0 112 -102 237 -227 l227 -227 26 24 c14 13 25 29 25 36 0 6 -99 110 -220 230 -121 121 -220 223 -220 227 0 5 24 36 52 70 29 34 54 64 56 67 1 2 106 -99 231 -224 135 -135 233 -226 240 -222 6 4 18 20 26 35 l14 28 -224 224 c-124 123 -225 227 -225 232 0 4 14 32 31 63 l32 56 232 -232 c243 -243 235 -238 265 -181 11 22 6 30 -106 143 -134 134 -139 129 63 68 67 -20 125 -34 130 -31 5 3 14 18 20 33 19 42 47 30 -427 174 -76 23 -151 46 -157 49 -4 2 63 165 71 172 3 3 11 1 18 -4 13 -10 105 -59 308 -166 58 -30 131 -69 164 -86 64 -35 74 -33 82 20 l6 34 -117 60 c-63 33 -127 69 -141 80 l-25 20 160 -3 161 -3 10 26 c6 15 10 35 10 46 0 18 -10 19 -310 19 -242 0 -310 3 -310 13 1 20 25 106 32 113 4 3 143 7 310 8 285 1 303 2 306 19 2 10 1 29 -2 43 l-6 24 -296 0 -295 0 3 58 3 57 297 3 297 2 4 -22 c3 -13 4 6 3 42 l-1 65 -294 2 c-161 1 -295 3 -296 5 -2 2 -6 40 -10 86 l-7 82 28 1 c16 0 147 0 292 1 290 1 270 -4 256 64 l-5 29 -289 -3 c-320 -3 -300 -7 -313 63 -3 17 -9 38 -12 48 -7 16 11 17 290 17 279 0 297 1 290 18 -3 9 -9 29 -12 44 l-5 27 -122 3 -121 3 55 30 c30 16 76 40 102 53 l47 24 -19 39 c-14 27 -25 37 -36 32 -8 -3 -82 -42 -162 -86 -256 -139 -311 -166 -316 -158 -3 4 -14 34 -26 67 -12 32 -26 69 -32 81 -6 13 -9 25 -6 28 6 7 111 39 372 114 76 22 140 42 143 44 7 8 -30 77 -41 77 -6 0 -53 -14 -105 -30 -52 -16 -96 -29 -97 -27 -2 2 30 36 71 77 41 41 75 79 75 84 0 5 -9 24 -21 43 l-21 34 -194 -193 c-106 -106 -197 -191 -201 -189 -5 2 -24 32 -43 67 l-35 64 188 188 188 189 -27 32 -27 33 -187 -187 -187 -187 -38 47 -38 46 183 184 184 184 -29 31 -29 31 -182 -182 -183 -182 -46 39 c-26 21 -56 45 -66 53 -10 7 -19 18 -19 25 0 6 79 90 176 187 l176 176 -30 22 c-17 11 -34 21 -39 21 -4 0 -87 -79 -183 -175 -96 -96 -178 -175 -182 -175 -4 0 -33 16 -64 36 l-57 36 183 183 183 183 -39 20 -39 21 -67 -67 c-67 -66 -81 -67 -57 -5 6 15 17 47 24 71 l14 44 -42 18 -42 19 -7 -22 c-32 -105 -91 -298 -112 -369 -23 -77 -29 -87 -44 -78 -9 6 -48 24 -87 40 -38 16 -69 33 -68 37 1 5 24 49 50 98 101 185 174 327 171 329 -11 10 -72 25 -79 20 -5 -3 -26 -38 -47 -77 l-37 -72 -3 91 -3 91 -44 10 -45 10 0 -249 0 -248 -27 6 c-16 4 -46 12 -68 18 l-40 12 0 246 0 246 -42 4 -43 3 0 -244 0 -244 -37 7 c-21 3 -48 6 -60 6 l-23 0 -2 243 -3 242 -42 3 -43 3 0 -245z m62 -401 c15 -44 50 -154 78 -245 28 -91 58 -186 67 -212 8 -27 20 -48 27 -48 58 0 240 -94 291 -150 15 -16 14 -20 -8 -45 l-23 -28 -64 47 c-100 74 -192 110 -175 69 4 -10 13 -40 20 -68 7 -27 27 -93 44 -146 17 -53 31 -103 31 -113 0 -14 -20 -16 -185 -16 -175 0 -185 -1 -185 -19 0 -10 16 -113 35 -227 19 -115 35 -212 35 -216 0 -5 4 -8 9 -8 12 0 32 64 66 200 30 122 51 176 74 186 9 4 138 9 286 11 260 4 271 4 303 -17 38 -23 69 -86 96 -195 31 -121 47 -167 93 -268 40 -86 45 -105 41 -149 -6 -61 -37 -95 -98 -109 -27 -6 -146 -6 -334 0 -160 6 -331 11 -381 13 l-90 2 3 -44 c2 -25 13 -97 23 -160 11 -63 25 -144 30 -180 5 -36 14 -81 18 -100 5 -19 12 -55 15 -80 7 -60 23 -158 31 -197 7 -31 7 -32 -41 -40 -27 -4 -114 -8 -194 -8 -291 1 -548 86 -775 256 -405 302 -600 783 -521 1279 29 180 114 388 223 543 74 107 227 260 326 326 225 151 486 236 727 236 l55 0 27 -80z"/>
 <path d="M1880 2815 c-8 -2 -49 -8 -90 -15 -103 -16 -199 -54 -271 -107 l-61 -44 23 -25 c29 -30 32 -30 77 6 98 78 234 110 465 110 l157 0 0 34 c0 30 -4 34 -31 40 -31 6 -239 7 -269 1z"/>
 </g>

</svg>