<?xml version="1.0" encoding="utf-8"?>
<!-- Generator: Adobe Illustrator 24.2.1, SVG Export Plug-In . SVG Version: 6.00 Build 0)  -->
<svg version="1.1" id="图层_1" xmlns="http://www.w3.org/2000/svg" xmlns:xlink="http://www.w3.org/1999/xlink" x="0px" y="0px"
	 viewBox="0 0 603.7 125.3" style="enable-background:new 0 0 603.7 125.3;" xml:space="preserve">
<style type="text/css">
	.st0{display:none;}
	.st1{display:inline;}
	.st2{fill:#FFFFFF;}
	.st3{display:inline;fill:#FFFFFF;}
	.st4{display:none;fill:#02BA96;}
	.st5{display:none;fill:#FFFFFF;}
	.st6{fill:#0A0806;}
	.st7{fill:#48341A;}
	.st8{fill:#505050;}
	.st9{fill:#F9D54B;}
	.st10{fill:#FEFEFB;}
</style>
<g class="st0">
	<g class="st1">
		<rect x="168.5" y="40.3" class="st2" width="11.8" height="77.3"/>
		<rect x="136.9" y="7.6" class="st2" width="96.5" height="11.8"/>
		<rect x="189.9" y="40.3" class="st2" width="11.8" height="77.3"/>
	</g>
	<g class="st1">
		<polygon class="st2" points="528.8,117.7 540.8,117.7 540.8,71.2 528.8,57.9 		"/>
		<polygon class="st2" points="591.7,7.6 591.7,93.9 507.2,0 507.2,117.7 519.2,117.7 519.2,31.4 603.7,125.3 603.7,7.6 		"/>
	</g>
	<g class="st1">
		<path class="st2" d="M429.9,7.5c-30.4,0-55.1,24.7-55.1,55.1s24.7,55.1,55.1,55.1c30.4,0,55.1-24.7,55.1-55.1
			C484.9,32.3,460.3,7.5,429.9,7.5z M429.9,105.8c-23.8,0-43.2-19.4-43.2-43.2s19.4-43.2,43.2-43.2c23.8,0,43.2,19.4,43.2,43.2
			C473.1,86.4,453.7,105.8,429.9,105.8z"/>
		<path class="st2" d="M429.9,54.7c-4.4,0-7.9,3.5-7.9,7.9s3.5,7.9,7.9,7.9c4.4,0,7.9-3.5,7.9-7.9S434.3,54.7,429.9,54.7z"/>
	</g>
	<path class="st3" d="M354.1,41.4c0-18.6-15-33.8-33.5-33.8h-63v110.1h11.8V19.6h51.2c11.9,0,21.5,9.8,21.5,21.8
		c0,12-9.5,21.7-21.3,21.8l-41.8,0v54.6h11.8V75.1h27.5l22.5,42.6h13.7L331,73.5C344.6,69,354.1,55.8,354.1,41.4z"/>
</g>
<circle class="st4" cx="56.3" cy="63.8" r="56.3"/>
<path class="st5" d="M80.3,41.5L25.5,31.4L54.3,104l40.2-49L80.3,41.5z M79.4,46l8.4,8l-22.9,4.2L79.4,46z M59.9,57.2l-24.2-20
	l39.5,7.3L59.9,57.2z M58.1,60.8l-3.9,32.6L33,39.9L58.1,60.8z M61.8,62.5l25.4-4.6L58.1,93.4L61.8,62.5z"/>
<g id="layer101">
	<path class="st6" d="M55.6,121.3c-2.7-0.2-6.5-0.7-8.4-1.2c-3.4-0.8-7.4-2-9.3-2.7c-1-0.4-1.9-0.7-2-0.7c-1,0-11.9-6.3-13-7.5
		c-0.1-0.2-1.2-1.1-2.4-2c-2.8-2.2-6.5-6.2-8.8-9.3c-1-1.4-2.1-2.8-2.3-3.1c-0.3-0.3-0.5-0.7-0.5-0.9s-0.7-1.4-1.5-2.7
		c-0.8-1.3-1.5-2.5-1.5-2.6c0-0.1-0.4-1.2-1-2.4C1.4,78.6-0.3,69.3,0,60c0.2-4.5,2-13.6,3.3-16.1c0.3-0.7,0.5-1.2,0.4-1.3
		c-0.1-0.1,0.1-0.7,0.4-1.2c0.3-0.6,1.2-2.4,2-4c0.7-1.6,1.7-3.4,2-4c0.4-0.6,1.2-1.8,1.8-2.8c3.5-5.3,10.4-12.5,14.6-15.1
		c0.3-0.1,1.4-0.9,2.5-1.7c1.2-0.8,2.7-1.7,3.5-2.1c0.8-0.4,1.5-0.8,1.5-0.9c0.1-0.1,0.2-0.2,0.4-0.2c0.1,0,1.2-0.4,2.2-0.9
		c2.5-1.1,6.3-2.5,8.9-3.1c1.1-0.3,2.5-0.6,3.1-0.7c2.2-0.5,4.8-0.9,6.9-1c1.2-0.1,2.2-0.2,2.3-0.3c0.3-0.3,2.8-0.2,7.2,0.3
		c5.4,0.6,8.9,1.3,13.4,2.7c2.3,0.7,7.3,2.8,7.8,3.2c0.2,0.2,1.8,1.1,3.5,2c3.7,2,6,3.7,9.4,6.8c5.7,5.2,10.3,11.2,13.1,16.9
		c0.7,1.5,1.4,2.7,1.5,2.8c0.2,0.1,0.6,1.3,0.7,2c0,0.1,0.3,0.9,0.7,1.6c1.3,2.6,3.3,11.8,3.4,15.9c0,0.9,0.2,2.7,0.3,4.1
		c0.1,1.6,0.1,2.6-0.1,2.8c-0.2,0.2-0.4,1.8-0.5,3.4c-0.4,5.9-2.2,12.2-5.2,18.6c-4.3,9.1-9.9,15.9-18.1,22
		c-6.7,5-12.8,7.7-22.3,10.1C66.4,121,60,121.6,55.6,121.3z"/>
</g>
<g id="layer102">
	<path class="st7" d="M55.6,121.3c-2.7-0.2-6.5-0.7-8.4-1.2c-3.4-0.8-7.4-2-9.3-2.7c-1-0.4-1.9-0.7-2-0.7c-1,0-11.9-6.3-13-7.5
		c-0.1-0.2-1.2-1.1-2.4-2c-2.8-2.2-6.5-6.2-8.8-9.3c-1-1.4-2.1-2.8-2.3-3.1c-0.3-0.3-0.5-0.7-0.5-0.9s-0.7-1.4-1.5-2.7
		c-0.8-1.3-1.5-2.5-1.5-2.6c0-0.1-0.4-1.2-1-2.4C1.4,78.6-0.3,69.3,0,60c0.2-4.5,2-13.6,3.3-16.1c0.3-0.7,0.5-1.2,0.4-1.3
		c-0.1-0.1,0.1-0.7,0.4-1.2c0.3-0.6,1.2-2.4,2-4c0.7-1.6,1.7-3.4,2-4c0.4-0.6,1.2-1.8,1.8-2.8c3.5-5.3,10.4-12.5,14.6-15.1
		c0.3-0.1,1.4-0.9,2.5-1.7c1.2-0.8,2.7-1.7,3.5-2.1c0.8-0.4,1.5-0.8,1.5-0.9c0.1-0.1,0.2-0.2,0.4-0.2c0.1,0,1.2-0.4,2.2-0.9
		c2.5-1.1,6.3-2.5,8.9-3.1c1.1-0.3,2.5-0.6,3.1-0.7c2.2-0.5,4.8-0.9,6.9-1c1.2-0.1,2.2-0.2,2.3-0.3c0.3-0.3,2.8-0.2,7.2,0.3
		c5.4,0.6,8.9,1.3,13.4,2.7c2.3,0.7,7.3,2.8,7.8,3.2c0.2,0.2,1.8,1.1,3.5,2c3.7,2,6,3.7,9.4,6.8c5.7,5.2,10.3,11.2,13.1,16.9
		c0.7,1.5,1.4,2.7,1.5,2.8c0.2,0.1,0.6,1.3,0.7,2c0,0.1,0.3,0.9,0.7,1.6c1.3,2.6,3.3,11.8,3.4,15.9c0,0.9,0.2,2.7,0.3,4.1
		c0.1,1.6,0.1,2.6-0.1,2.8c-0.2,0.2-0.4,1.8-0.5,3.4c-0.4,5.9-2.2,12.2-5.2,18.6c-4.3,9.1-9.9,15.9-18.1,22
		c-6.7,5-12.8,7.7-22.3,10.1C66.4,121,60,121.6,55.6,121.3z M50.7,71.8c3.2-0.2,3.2-0.2,3.8-1.1c0.4-0.5,0.9-2,1.2-3.3
		c0.3-1.3,0.6-2.6,0.6-3c0.1-0.4,0.2-0.9,0.3-1.3c0.1-0.3,0.2-0.8,0.3-1.1c0.2-0.9,1-2.4,1.5-2.8c0.4-0.3,0.5-0.3,0.9,0
		c0.7,0.5,0.9,1.2,2.1,5.9c1.2,4.5,1.7,6.1,2.5,6.4c0.3,0.1,4.1,0.3,8.5,0.3c7.7,0.1,8,0.1,9-0.5c1.1-0.7,2-2.5,2.8-5.8
		c0.9-3.6,1.4-4.9,2.8-7.9c1.2-2.5,1.3-3.1,1.2-4.4c-0.2-1.8-1.1-2.8-2.9-3.2c-0.9-0.2-5.6-0.1-14.2,0.2c-7.1,0.2-14.5,0.4-16.3,0.3
		c-11.4-0.4-18.1-0.6-22.1-0.5c-0.7,0-1.3,0.3-2,1c-0.9,0.9-1.1,1.2-1.1,2.5c0,1.2,0.3,2.1,1.3,4.1c1.2,2.3,1.8,4.1,2.9,8.5
		c0.2,0.7,0.4,1.4,0.5,1.6c0.2,0.6,0.2,0.7,0.5,1.5c0.3,0.9,1.5,2.1,2.5,2.4C38.2,72.1,46.5,72.1,50.7,71.8z"/>
	<path class="st7" d="M38.3,70.7c-1.7-0.2-2.2-1-3.6-6.4c-0.7-2.7-1.7-5.4-2.5-7c-1.5-3-1.7-4.1-0.6-5.1c0.7-0.7,0.8-0.7,4.8-0.7
		c2.2,0,8.3,0.2,13.3,0.4c7.2,0.3,11.3,0.3,18.5,0c10.4-0.4,16.3-0.5,17.3-0.2c0.7,0.2,1.5,1.5,1.5,2.4c0,0.3-0.7,1.9-1.4,3.6
		c-0.8,1.7-1.9,4.7-2.4,6.6c-1.1,4.2-1.9,6-2.8,6.3c-0.4,0.1-4.1,0.2-8.2,0.1c-6.5-0.1-7.6-0.1-7.9-0.6c-0.2-0.2-0.8-2.2-1.3-4.4
		c-1-4.3-2-6.7-3.3-7.6c-0.7-0.5-0.8-0.5-1.7-0.1c-1.2,0.7-2.2,2.8-3.2,7.1c-0.4,2-1,4-1.2,4.5l-0.4,1h-2.5c-1.4,0-4.5,0.1-6.9,0.1
		C41.5,70.8,38.9,70.8,38.3,70.7z M50.1,68.9c2-0.5,2.2-1,3.5-6.6c1.4-6.4,1.4-7,0.2-8.1c-0.8-0.7-1.2-0.7-2.4-0.7l-1.5,0.1l-1.7,3
		c-5.9,10.3-6.8,12-6.8,12.2C41.4,69.1,48.7,69.2,50.1,68.9z M79.2,68.7c0.9-0.6,1-0.9,3-7.1c1.2-3.8,1.7-5.9,1.6-6.4
		c-0.2-1.1-1.4-2-2.8-2H80l-4.4,7.7c-2.4,4.3-4.4,7.8-4.5,8c-0.1,0.1,1.6,0.2,3.7,0.2C77.7,69.1,78.7,69,79.2,68.7z M71.5,60.6
		c2.2-3.8,4-7,4-7c0-0.1-0.6-0.1-1.3-0.1h-1.3l-3.6,6.2c-3.1,5.4-3.6,6.4-3.4,7.2c0.1,0.5,0.4,1.1,0.5,1.3
		C66.8,68.7,66.7,69,71.5,60.6z M42.3,59.5l3.6-6.2l-1.2-0.1c-1.5-0.1-1.2-0.5-4.8,5.9l-2.9,5l0.5,1.5c0.5,1.5,0.5,1.5,0.9,0.8
		C38.6,66.1,40.3,63,42.3,59.5z M67.6,59.4c1.3-2.2,2.5-4.4,2.9-5l0.6-1l-0.8,0.1c-0.8,0.1-0.9,0.2-3.8,5.3c-1.7,3-1.8,3.2-1.6,4
		c0.1,0.4,0.3,0.8,0.3,0.7C65.3,63.4,66.4,61.6,67.6,59.4z M38.9,57.5c2.9-5.1,2.7-4.7,1.9-4.7c-0.6,0-1,0.6-2.8,3.7
		c-1.6,2.8-2.1,3.9-2,4.4c0.1,0.4,0.3,0.7,0.4,0.7C36.5,61.7,37.6,59.8,38.9,57.5z M65.2,59.4c0.3-0.5,0.4-0.9,0.3-0.9
		c-0.1,0,0-0.2,0.2-0.5c0.2-0.3,0.5-0.7,0.7-1c0.1-0.2,0.5-1,0.9-1.6c0.4-0.7,0.7-1.3,0.7-1.4c0-0.1-0.6-0.2-1.4-0.2
		c-1.1,0-1.5,0.1-2.2,0.9c-0.5,0.5-0.9,1.2-0.9,1.6c0,1,0.7,4.1,0.9,4.1C64.6,60.3,64.9,59.9,65.2,59.4z M36.1,58.2
		c0.2-0.3,0.2-0.6,0.1-0.6c-0.1,0-0.1-0.1,0.1-0.2c0.4-0.3,0.9-1,1.5-2.4c0.3-0.6,0.7-1.3,0.9-1.5c0.4-0.5,0.4-0.5-0.9-0.5
		c-1.8,0-2.5,0.4-3,1.6c-0.4,0.8-0.4,1.2,0.1,2.6C35.3,58.9,35.6,59.1,36.1,58.2z"/>
</g>
<g id="layer103">
	<path class="st8" d="M55.6,121.3c-2.7-0.2-6.5-0.7-8.4-1.2c-3.4-0.8-7.4-2-9.3-2.7c-1-0.4-1.9-0.7-2-0.7c-1,0-11.9-6.3-13-7.5
		c-0.1-0.2-1.2-1.1-2.4-2c-2.8-2.2-6.5-6.2-8.8-9.3c-1-1.4-2.1-2.8-2.3-3.1c-0.3-0.3-0.5-0.7-0.5-0.9s-0.7-1.4-1.5-2.7
		c-0.8-1.3-1.5-2.5-1.5-2.6c0-0.1-0.4-1.2-1-2.4C1.4,78.6-0.3,69.3,0,60c0.2-4.5,2-13.6,3.3-16.1c0.3-0.7,0.5-1.2,0.4-1.3
		c-0.1-0.1,0.1-0.7,0.4-1.2c0.3-0.6,1.2-2.4,2-4c0.7-1.6,1.7-3.4,2-4c0.4-0.6,1.2-1.8,1.8-2.8c3.5-5.3,10.4-12.5,14.6-15.1
		c0.3-0.1,1.4-0.9,2.5-1.7c1.2-0.8,2.7-1.7,3.5-2.1c0.8-0.4,1.5-0.8,1.5-0.9c0.1-0.1,0.2-0.2,0.4-0.2c0.1,0,1.2-0.4,2.2-0.9
		c2.5-1.1,6.3-2.5,8.9-3.1c1.1-0.3,2.5-0.6,3.1-0.7c2.2-0.5,4.8-0.9,6.9-1c1.2-0.1,2.2-0.2,2.3-0.3c0.3-0.3,2.8-0.2,7.2,0.3
		c5.4,0.6,8.9,1.3,13.4,2.7c2.3,0.7,7.3,2.8,7.8,3.2c0.2,0.2,1.8,1.1,3.5,2c3.7,2,6,3.7,9.4,6.8c5.7,5.2,10.3,11.2,13.1,16.9
		c0.7,1.5,1.4,2.7,1.5,2.8c0.2,0.1,0.6,1.3,0.7,2c0,0.1,0.3,0.9,0.7,1.6c1.3,2.6,3.3,11.8,3.4,15.9c0,0.9,0.2,2.7,0.3,4.1
		c0.1,1.6,0.1,2.6-0.1,2.8c-0.2,0.2-0.4,1.8-0.5,3.4c-0.4,5.9-2.2,12.2-5.2,18.6c-4.3,9.1-9.9,15.9-18.1,22
		c-6.7,5-12.8,7.7-22.3,10.1C66.4,121,60,121.6,55.6,121.3z M52.3,71.9c2.2-0.3,2.5-0.9,3.8-5.9c0.9-4,1.8-6.3,2.5-6.7
		c0.4-0.3,1.2,0.4,1.5,1.3c0.1,0.4,0.7,2.5,1.3,4.7c1.2,4.5,1.7,6.1,2.5,6.4c0.3,0.1,4.1,0.3,8.5,0.3c7.7,0.1,8,0.1,9-0.5
		c1.1-0.7,2-2.5,2.8-5.8c0.9-3.6,1.4-4.9,2.8-7.9c1.2-2.6,1.3-3.1,1.2-4.4c-0.2-2-1.3-3-3.3-3.3c-0.8-0.1-6.8,0-13.3,0.2
		c-10.5,0.4-13.3,0.4-25.1,0c-12.3-0.4-13.3-0.4-14.6,0c-2.8,1.1-3.1,3.5-0.9,7.8c1.2,2.4,2,4.8,3.1,9.2c0.6,2.4,1.7,4.1,3,4.5
		C37.6,72.1,50.4,72.1,52.3,71.9z"/>
	<path class="st8" d="M67.3,68.8c-0.4-0.4-0.4-0.3,5.2-9.9l3.3-5.6l2.1-0.1c1.2-0.1,2.1,0,2,0.2c0,0.1-2.1,3.7-4.5,8l-4.4,7.7h-1.7
		C68.3,69.1,67.4,69,67.3,68.8z"/>
	<path class="st8" d="M38.6,68.1c-0.4-0.4-0.7-0.9-0.6-1c0.1-0.1,1.9-3.3,4.1-7.1c4.3-7.6,3.8-7.1,6.7-6.7l1.2,0.2l-1.7,3
		c-0.9,1.6-2.9,5.1-4.3,7.6c-2.6,4.6-2.7,4.7-3.6,4.7C39.7,68.8,39.1,68.6,38.6,68.1z"/>
	<path class="st8" d="M65.3,64.7c-0.1-0.8,0.2-1.7,2.8-6c2.8-4.8,3-5.1,3.9-5.2l0.9-0.1l-1,1.7c-4.8,8.4-6,10.4-6.2,10.4
		C65.6,65.6,65.4,65.2,65.3,64.7z"/>
	<path class="st8" d="M36.6,62.9c-0.2-1-0.3-0.9,2.6-5.8c2.1-3.7,2.6-4.3,3.5-3.9c0.4,0.1,0,1.1-2.5,5.4c-1.6,2.9-3.1,5.2-3.2,5.3
		C36.8,63.8,36.7,63.4,36.6,62.9z"/>
	<path class="st8" d="M64.5,61c0-0.3,0.3-1,0.6-1.5c0.3-0.6,0.5-1,0.4-1c-0.1,0,0-0.2,0.2-0.5c0.4-0.5,0.7-1,1.7-2.9
		c0.5-0.9,0.9-1.4,1.3-1.4c0.3,0,0.5,0.1,0.5,0.1c0,0.1-0.5,1-1.1,2c-0.6,1-1.5,2.7-2.1,3.6C65.1,61.3,64.5,61.9,64.5,61z"/>
	<path class="st8" d="M35.7,59.6c-0.2-0.7-0.1-1.4,0.2-1.3c0.2,0.1,0.4-0.3,0.3-0.8c0-0.1,0.1-0.2,0.2-0.2c0.1,0,0.3-0.2,0.4-0.5
		c0.4-1.1,1.8-3.4,2.3-3.8c1-0.6,0.8,0.1-1,3.3C36,60,35.9,60.2,35.7,59.6z"/>
</g>
<g id="layer104">
	<path class="st9" d="M55.6,121.3c-2.7-0.2-6.5-0.7-8.4-1.2c-3.4-0.8-7.4-2-9.3-2.7c-1-0.4-1.9-0.7-2-0.7c-1,0-11.9-6.3-13-7.5
		c-0.1-0.2-1.2-1.1-2.4-2c-2.8-2.2-6.5-6.2-8.8-9.3c-1-1.4-2.1-2.8-2.3-3.1c-0.3-0.3-0.5-0.7-0.5-0.9s-0.7-1.4-1.5-2.7
		c-0.8-1.3-1.5-2.5-1.5-2.6c0-0.1-0.4-1.2-1-2.4C1.4,78.6-0.3,69.3,0,60c0.2-4.5,2-13.6,3.3-16.1c0.3-0.7,0.5-1.2,0.4-1.3
		c-0.1-0.1,0.1-0.7,0.4-1.2c0.3-0.6,1.2-2.4,2-4c0.7-1.6,1.7-3.4,2-4c0.4-0.6,1.2-1.8,1.8-2.8c3.5-5.3,10.4-12.5,14.6-15.1
		c0.3-0.1,1.4-0.9,2.5-1.7c1.2-0.8,2.7-1.7,3.5-2.1c0.8-0.4,1.5-0.8,1.5-0.9c0.1-0.1,0.2-0.2,0.4-0.2c0.1,0,1.2-0.4,2.2-0.9
		c2.5-1.1,6.3-2.5,8.9-3.1c1.1-0.3,2.5-0.6,3.1-0.7c2.2-0.5,4.8-0.9,6.9-1c1.2-0.1,2.2-0.2,2.3-0.3c0.3-0.3,2.8-0.2,7.2,0.3
		c5.4,0.6,8.9,1.3,13.4,2.7c2.3,0.7,7.3,2.8,7.8,3.2c0.2,0.2,1.8,1.1,3.5,2c3.7,2,6,3.7,9.4,6.8c5.7,5.2,10.3,11.2,13.1,16.9
		c0.7,1.5,1.4,2.7,1.5,2.8c0.2,0.1,0.6,1.3,0.7,2c0,0.1,0.3,0.9,0.7,1.6c1.3,2.6,3.3,11.8,3.4,15.9c0,0.9,0.2,2.7,0.3,4.1
		c0.1,1.6,0.1,2.6-0.1,2.8c-0.2,0.2-0.4,1.8-0.5,3.4c-0.4,5.9-2.2,12.2-5.2,18.6c-4.3,9.1-9.9,15.9-18.1,22
		c-6.7,5-12.8,7.7-22.3,10.1C66.4,121,60,121.6,55.6,121.3z M52.3,71.9c2.2-0.3,2.5-0.9,3.8-6c1-4.3,2-6.7,2.8-6.7
		c0.7,0,1.4,1.7,2.5,5.9c1.2,4.6,1.7,6.2,2.5,6.5c0.3,0.1,4.1,0.3,8.5,0.3c7.7,0.1,8,0.1,9-0.5c1.1-0.7,2-2.5,2.8-5.8
		c0.9-3.6,1.4-4.9,2.8-7.9c1.2-2.5,1.3-3.1,1.2-4.4c-0.2-1.8-1.1-2.8-2.8-3.2c-1-0.2-16,0.1-22.6,0.5c-1.2,0.1-8.4-0.1-15.9-0.4
		c-12.7-0.4-13.8-0.4-15,0c-2.8,1.1-3.1,3.5-0.9,7.8c1.2,2.4,2,4.8,3.1,9.2c0.6,2.4,1.7,4.1,3,4.5C37.6,72.1,50.4,72.1,52.3,71.9z"
		/>
</g>
<g id="layer105">
	<path class="st10" d="M58,114.3V107h-1.7c-0.9,0-2.2-0.1-2.7-0.2l-0.9-0.2v7.1v7.2l-1.2-0.1l-1.3-0.1l-0.1-7.3l-0.1-7.3l-1.7-0.4
		c-0.9-0.2-1.8-0.3-1.9-0.3c-0.1,0-0.2,3.2-0.2,7.1v7.2l-1.1-0.2c-0.6-0.1-1.2-0.2-1.2-0.3c-0.1-0.1-0.2-1.2-0.2-2.4
		c0-1.2-0.1-2.2-0.2-2.2c-0.1,0-0.7,0.9-1.2,1.9c-0.6,1.3-1.1,1.9-1.4,1.8c-0.2-0.1-0.6-0.1-0.9-0.1c-1.7,0-1.5-0.3,4.4-11.2
		c0.5-0.9,0.9-1.7,0.9-1.8c0-0.1-1-0.7-2.2-1.2l-2.2-0.9L40,106c-0.5,1.6-1.4,4.7-2.2,6.9l-1.2,4l-0.9-0.3c-1.4-0.4-1.5-0.7-0.9-2
		c0.2-0.7,0.5-1.6,0.6-2.1c0.1-0.4,0.3-1,0.4-1.3c0.1-0.3-0.7,0.4-1.9,1.5l-2.1,2l-1.2-0.5c-0.7-0.3-1.2-0.6-1.2-0.7
		c0-0.1,2.4-2.6,5.3-5.5l5.3-5.3l-1.8-0.9c-1-0.5-2-1.1-2.2-1.3c-0.4-0.3-1.2,0.4-5.7,4.9l-5.3,5.3l-0.9-0.5
		c-0.5-0.3-0.9-0.7-0.9-0.9c0-0.1,2.3-2.6,5.1-5.4l5.1-5.1l-1.2-1c-0.7-0.6-1.3-1-1.4-1s-2.5,2.2-5.3,5c-2.7,2.7-5.1,5-5.2,5
		s-0.7-0.2-1.1-0.7l-0.9-0.7l5.2-5.3l5.2-5.3l-1.6-1.8c-0.8-1-1.6-1.9-1.7-2.1c-0.1-0.1-2.6,2.2-5.5,5c-5.5,5.5-5.8,5.7-6.6,4.2
		c-0.4-0.7-0.2-0.9,5-6.2l5.4-5.4l-1.1-1.9c-0.6-1-1.2-2-1.2-2c-0.1-0.1-2.6,2.4-5.7,5.4l-5.6,5.6l-0.7-0.7
		c-0.3-0.4-0.6-0.9-0.6-1.1c0-0.3,1-1.5,2.3-2.8c1.4-1.5,2-2.3,1.6-2.2c-0.4,0.1-0.9,0.2-1.2,0.3c-0.3,0.1-1.4,0.4-2.4,0.7
		c-1,0.4-2,0.6-2.2,0.6c-0.3,0-1.3-2-1.1-2.2c0.1-0.1,0.8-0.4,1.6-0.6c0.8-0.2,3.7-1.1,6.5-2c2.8-0.8,5.3-1.6,5.6-1.7
		c0.3-0.1,0.8-0.2,0.9-0.2c0.3-0.1,0.1-0.9-0.7-2.5c-0.6-1.3-1.1-2.5-1.2-2.7c-0.1-0.1-0.7,0.1-1.2,0.4c-0.6,0.4-2.2,1.2-3.6,2
		c-1.4,0.7-3.3,1.7-4.1,2.2c-0.9,0.5-2.4,1.3-3.3,1.8l-1.7,0.9l-0.5-0.8c-0.3-0.5-0.5-1-0.5-1.2c0-0.2,1.2-1.1,2.7-1.9l2.7-1.5
		l-3.3-0.1c-3.2-0.1-3.3-0.1-3.5-0.8c-0.2-0.4-0.3-1-0.3-1.3c0-0.5,0.3-0.6,8.3-0.6c7.8,0,8.3,0,8.1-0.5c-0.1-0.3-0.3-1.2-0.5-1.9
		l-0.3-1.4H9.5c-4.5,0-8.3-0.1-8.4-0.2c-0.1-0.1-0.2-0.7-0.3-1.3l-0.2-1.1h8.3h8.4l-0.2-1.5c-0.1-0.9-0.2-1.6-0.3-1.6
		c-0.1-0.1-3.7-0.1-8-0.1c-5.2,0-8.1-0.1-8.3-0.4C0.2,67.4,0,66.8,0,66.3v-1h8.4h8.4v-1.1c0-0.6,0.1-1.8,0.2-2.7l0.2-1.6H8.8
		c-5.6,0-8.5-0.1-8.6-0.3c-0.1-0.2-0.1-0.8,0-1.3l0.2-1H9h8.7l0.2-0.8c0.1-0.5,0.3-1.1,0.4-1.3c0.1-0.5-0.4-0.5-8.8-0.5H0.6l0.2-1.1
		c0.1-0.6,0.3-1.2,0.5-1.3c0.1-0.1,2.5-0.2,5.3-0.2s5.1-0.1,5.1-0.1c0.1-0.1-1.8-1.2-4.1-2.4c-5.6-2.9-5.4-2.7-4.9-4.1L3,44.3
		l3.5,1.8c4.1,2.2,6.7,3.6,9.9,5.3c1.3,0.7,2.5,1.1,2.6,1c0.3-0.3,1.8-4.3,1.7-4.4c-0.1,0-2.9-0.9-6.3-1.9c-3.4-1-7.1-2.1-8.3-2.5
		c-1.1-0.4-2.2-0.7-2.3-0.9c-0.2-0.3,0.4-1.8,0.9-2.1c0.1-0.1,1.3,0.2,2.6,0.6c4.2,1.4,7.8,2.4,7.8,2.2c0-0.1-1.8-2-4-4.2
		c-2.2-2.2-4-4.1-4-4.1s0.3-0.6,0.6-1.2l0.6-1l6.6,6.6l6.7,6.6l0.5-0.7c0.3-0.4,0.8-1.2,1.1-1.7l0.6-1l-6.6-6.6
		c-5.8-5.8-6.6-6.7-6.3-7.2c0.9-1.7,0.9-1.8,7.7,5c3.5,3.5,6.6,6.4,6.7,6.4c0.3,0,1.5-1.4,1.8-2.2c0.1-0.4-1.5-2.1-6.2-6.8
		c-3.5-3.5-6.4-6.5-6.4-6.7c0-0.2,0.3-0.7,0.7-1.1l0.8-0.7l6.6,6.6l6.6,6.6l2.1-1.7l2.1-1.7l-6.7-6.7l-6.8-6.7l0.8-0.8
		c0.4-0.4,0.9-0.8,1.1-0.8c0.2,0,3.3,3,7,6.7l6.7,6.7l1.4-0.8c0.8-0.4,1.5-0.9,1.6-0.9c0.1-0.1-3-3.2-6.8-7l-6.9-6.9l0.8-0.7
		c0.4-0.3,1-0.6,1.2-0.6s2.1,1.8,4.3,4s4.1,4,4.2,4c0.1,0,0-0.6-0.2-1.2c-0.2-0.7-0.7-2.3-1-3.5c-0.4-1.2-0.9-3-1.2-4
		c-0.8-2.4-0.7-2.7,0.5-3.1c0.6-0.2,1.1-0.3,1.2-0.3c0.1,0.1,2.7,8.8,4.4,14.7c0.5,1.8,1.1,3.4,1.2,3.5c0.1,0.1,0.7,0,1.4-0.3
		c0.7-0.3,1.7-0.7,2.4-1c0.7-0.3,1.2-0.6,1.2-0.8c0-0.3-1.1-2.4-5.9-11.2c-1.6-3-3-5.6-3-5.7c0-0.1,0.5-0.4,1.1-0.6
		c1.3-0.5,1.1-0.8,3.9,4.4c1.1,2.1,2.2,3.9,2.4,4.1c0.3,0.2,0.4-1,0.4-5.1c0-3,0.1-5.4,0.1-5.5c0.1-0.1,0.6-0.2,1.2-0.3L46.2,6v10
		c0,11.1-0.2,10.2,2.2,9.6c0.9-0.2,1.4-0.5,1.5-1c0.1-0.3,0.2-4.8,0.2-9.9s0-9.3,0.1-9.4c0.1-0.1,0.6-0.2,1.2-0.3l1.1-0.2v9.6
		c0,5.3,0.1,9.7,0.2,9.9c0.1,0.2,0.9,0.3,1.7,0.2l1.6-0.1l0.1-9.9l0.1-10l1.3-0.1l1.2-0.1v9.9c0,7.7,0.1,10,0.4,10.1
		c0.2,0.1,1.4,0.1,2.7,0.2l2.3,0.1v-9.9V4.9L65.2,5l1.2,0.1l0.1,9.2c0.1,5.1,0.1,9.6,0.1,10c0.1,0.7,0.3,0.9,1.4,1.2
		c0.7,0.2,1.5,0.4,1.7,0.4c0.3,0,0.4-2.2,0.4-10.1c0-11-0.1-10.4,1.7-9.7l0.9,0.3l-0.1,5.1c0,2.8,0,5.1,0.1,5.1
		c0.1,0,0.4-0.6,0.8-1.4c1.1-2.2,3.5-6.9,3.9-7.2c0.3-0.3,2.4,0.2,2.4,0.6c0,0.2-3.1,6.1-6.7,12.8c-1.4,2.5-2.4,4.6-2.3,4.8
		c0.1,0.1,0.4,0.3,0.8,0.4c0.4,0.1,1.4,0.4,2.3,0.8c2.8,1.1,2.6,1.3,4.2-4c3.4-11.2,4.1-13.6,4.2-13.7c0.2-0.2,2.2,0.8,2.2,1.1
		c0,0.4-0.7,3.1-1.4,5c-0.7,2-1.5,5.1-1.4,5.2c0.1,0.1,1.8-1.6,3.8-3.8c2.1-2.1,3.8-3.8,4-3.8c0.1,0,0.7,0.3,1.2,0.6l1,0.6l-7,7
		c-3.9,3.9-7,7.1-7,7.2c0,0.1,0.7,0.6,1.6,1.1l1.5,0.9l7-7l7-7l1,0.9l1,0.9L90,25.7l-6.9,6.9l1.1,1c0.6,0.5,1.2,1,1.4,1
		c0.1,0,3.3-3,7-6.7l6.7-6.7l0.8,0.7c0.4,0.4,0.7,0.9,0.7,1.1c0,0.2-2.9,3.3-6.5,6.8c-3.6,3.6-6.5,6.6-6.5,6.7
		c0,0.1,0.7,1.1,1.5,2.1c0.9,1,1.6,1.9,1.7,2c0,0.1,3.1-2.9,6.8-6.6c4-4,6.9-6.7,7.1-6.6c0.2,0.1,0.5,0.6,0.8,1l0.4,0.8l-6.6,6.6
		c-3.7,3.6-6.7,6.7-6.7,6.9c0,0.1,0.4,0.9,0.9,1.9l0.9,1.7l6.9-6.9c7.2-7.2,7-7,7.8-5.4c0.3,0.7,0.2,0.9-3.1,4.2c-4,4-4.1,3.8,1.9,2
		c2-0.6,3.7-1,3.8-0.9c0.1,0.1,0.4,0.5,0.6,1c0.6,1.2,1.4,0.9-12.6,5.1c-2.2,0.7-4.5,1.4-4.6,1.4c-0.1,0.1,1.9,4.9,2.1,5.1
		c0.1,0.1,0.3,0,0.5-0.1c0.4-0.3,3.1-1.7,9.1-4.9c1.7-0.9,3.9-2,4.9-2.5c1.9-1,2.2-1,2.4,0.6l0.2,1l-3.5,1.8c-1.9,1-3.8,2-4.2,2.4
		l-0.7,0.6l4.7-0.1l4.8-0.1l0.3,0.8c0.2,0.4,0.3,1,0.3,1.4c0,0.5-0.3,0.6-9.2,0.6c-7.2,0-9.2,0.1-9.2,0.4c0,0.6,0.7,3.1,0.9,3.3
		c0.1,0.1,4.2,0.2,9.2,0.2c8.4,0,9,0.1,9.1,0.6c0.1,0.3,0,0.9-0.1,1.3l-0.2,0.7h-8.8h-8.7l0.1,1.7l0.1,1.7l8.8,0.1l8.8,0.1l0.1-0.7
		c0.1-0.4,0.1,0.2,0.1,1.2l0,1.9l-8.7,0.1c-4.8,0-8.7,0.1-8.8,0.1c-0.1,0.1-0.2,1.2-0.3,2.5l-0.2,2.4l0.8,0c0.5,0,4.3,0,8.6,0
		c8.6,0,8-0.1,7.6,1.9l-0.1,0.9l-8.5-0.1c-9.5-0.1-8.9-0.2-9.3,1.9c-0.1,0.5-0.3,1.1-0.4,1.4c-0.2,0.5,0.3,0.5,8.6,0.5
		s8.8,0,8.6,0.5c-0.1,0.3-0.3,0.9-0.4,1.3l-0.1,0.8l-3.6,0.1l-3.6,0.1l1.6,0.9c0.9,0.5,2.2,1.2,3,1.6l1.4,0.7l-0.6,1.2
		c-0.4,0.8-0.7,1.1-1.1,0.9c-0.2-0.1-2.4-1.2-4.8-2.5c-7.6-4.1-9.2-4.9-9.3-4.7c-0.1,0.1-0.4,1-0.8,2c-0.4,0.9-0.8,2-0.9,2.4
		c-0.2,0.4-0.3,0.7-0.2,0.8c0.2,0.2,3.3,1.2,11,3.4c2.2,0.7,4.1,1.2,4.2,1.3c0.2,0.2-0.9,2.3-1.2,2.3c-0.2,0-1.6-0.4-3.1-0.9
		c-1.5-0.5-2.8-0.9-2.9-0.8c-0.1,0.1,0.9,1.1,2.1,2.3s2.2,2.3,2.2,2.5c0,0.1-0.3,0.7-0.6,1.3l-0.6,1l-5.7-5.7
		c-3.1-3.1-5.8-5.6-5.9-5.6c-0.1,0.1-0.7,0.9-1.3,2l-1,1.9l5.6,5.6l5.6,5.6l-0.8,0.9l-0.8,1L97,95.9l-5.5-5.5l-1.1,1.4l-1.1,1.4
		l5.4,5.4l5.4,5.4l-0.9,0.9l-0.9,0.9l-5.4-5.4l-5.4-5.4l-1.4,1.2c-0.8,0.6-1.7,1.3-2,1.6c-0.3,0.2-0.6,0.5-0.6,0.7
		c0,0.2,2.3,2.7,5.2,5.5l5.2,5.2l-0.9,0.7c-0.5,0.3-1,0.6-1.2,0.6c-0.1,0-2.6-2.3-5.4-5.2c-2.8-2.8-5.3-5.2-5.4-5.2
		c-0.1,0-1,0.5-1.9,1.1l-1.7,1.1l5.4,5.4l5.4,5.4l-1.2,0.6l-1.2,0.6l-2-2c-2-2-2.4-2-1.7-0.1c0.2,0.4,0.5,1.4,0.7,2.1l0.4,1.3
		l-1.2,0.5l-1.2,0.6l-0.2-0.7c-0.9-3.1-2.7-8.8-3.3-10.9c-0.7-2.3-0.9-2.6-1.3-2.3c-0.3,0.2-1.4,0.7-2.6,1.2c-1.1,0.5-2,1-2,1.1
		c0,0.1,0.7,1.4,1.5,2.9c3,5.5,5.1,9.7,5.1,9.7c-0.3,0.3-2.1,0.7-2.3,0.6c-0.1-0.1-0.8-1.1-1.4-2.3l-1.1-2.1l-0.1,2.7l-0.1,2.7
		l-1.3,0.3l-1.3,0.3v-7.4v-7.3l-0.8,0.2c-0.5,0.1-1.4,0.4-2,0.5l-1.2,0.4v7.3v7.3l-1.2,0.1l-1.3,0.1v-7.2v-7.2l-1.1,0.2
		c-0.6,0.1-1.4,0.2-1.8,0.2h-0.7l-0.1,7.2l-0.1,7.2l-1.2,0.1l-1.3,0.1V114.3z M59.8,102.4c0.4-1.3,1.5-4.6,2.3-7.2
		c0.8-2.7,1.7-5.5,2-6.3c0.2-0.8,0.6-1.4,0.8-1.4c1.7,0,7.1-2.8,8.6-4.4c0.4-0.5,0.4-0.6-0.2-1.3l-0.7-0.8l-1.9,1.4
		c-3,2.2-5.7,3.3-5.2,2c0.1-0.3,0.4-1.2,0.6-2c0.2-0.8,0.8-2.8,1.3-4.3s0.9-3,0.9-3.3c0-0.4-0.6-0.5-5.5-0.5c-5.2,0-5.5,0-5.5-0.6
		c0-0.3,0.5-3.3,1-6.7c0.6-3.4,1-6.3,1-6.4c0-0.1,0.1-0.2,0.3-0.2c0.4,0,0.9,1.9,2,5.9c0.9,3.6,1.5,5.2,2.2,5.5
		c0.3,0.1,4.1,0.3,8.5,0.3c7.7,0.1,8,0.1,9-0.5c1.1-0.7,2-2.5,2.8-5.8c0.9-3.6,1.4-4.9,2.8-7.9c1.2-2.5,1.3-3.1,1.2-4.4
		c-0.2-1.8-1.1-2.8-2.9-3.2c-0.8-0.2-4.3-0.2-9.9,0c-4.7,0.2-9.8,0.3-11.3,0.4l-2.7,0.1l0.1-1.3c0.1-0.7,0.4-2.9,0.7-4.7
		c0.3-1.9,0.7-4.3,0.9-5.3c0.1-1.1,0.4-2.4,0.5-3c0.1-0.6,0.4-1.6,0.4-2.4c0.2-1.8,0.7-4.7,0.9-5.8c0.2-0.9,0.2-0.9-1.2-1.2
		c-0.8-0.1-3.4-0.2-5.7-0.2c-8.6,0-16.2,2.5-22.9,7.6c-12,8.9-17.7,23.2-15.4,37.8c0.9,5.3,3.4,11.5,6.6,16.1
		c2.2,3.2,6.7,7.7,9.6,9.6c6.7,4.5,14.4,7,21.5,7H59L59.8,102.4z"/>
	<path class="st10" d="M55.3,87.6c-0.2-0.1-1.4-0.2-2.7-0.4c-3-0.5-5.9-1.6-8-3.2l-1.8-1.3l0.7-0.7c0.9-0.9,0.9-0.9,2.3,0.2
		c2.9,2.3,6.9,3.3,13.8,3.3h4.6v1c0,0.9-0.1,1-0.9,1.2C62.4,87.8,56.2,87.8,55.3,87.6z"/>
</g>
<g>
	<path class="st2" d="M164.7,117.7c-7.9-2.6-14.2-6.1-18.7-10.3l6-12.6c4.3,3.9,9.9,7,16.6,9.5c6.8,2.4,13.7,3.6,20.8,3.6
		c9.4,0,16.4-1.6,21.1-4.8c4.6-3.2,7-7.4,7-12.7c0-3.9-1.3-7-3.8-9.5c-2.5-2.4-5.7-4.3-9.4-5.6c-3.7-1.3-9-2.8-15.8-4.4
		c-8.5-2.1-15.4-4.1-20.7-6.2c-5.2-2.1-9.7-5.2-13.4-9.5c-3.7-4.3-5.6-10-5.6-17.3c0-6,1.6-11.5,4.8-16.4c3.2-4.9,8-8.8,14.5-11.7
		c6.5-2.9,14.5-4.4,24.1-4.4c6.7,0,13.3,0.9,19.8,2.6c6.5,1.7,12,4.2,16.7,7.5l-5.3,13c-4.8-3-9.8-5.3-15.2-6.9
		c-5.4-1.6-10.7-2.3-15.9-2.3c-9.2,0-16.1,1.7-20.7,5c-4.6,3.3-6.9,7.7-6.9,13c0,3.9,1.3,7,3.9,9.5s5.8,4.3,9.6,5.7
		c3.8,1.4,9,2.8,15.6,4.3c8.5,2.1,15.4,4.1,20.6,6.2c5.2,2.1,9.6,5.2,13.4,9.4c3.7,4.2,5.6,9.9,5.6,17c0,5.9-1.6,11.4-4.9,16.3
		c-3.2,4.9-8.2,8.8-14.7,11.7c-6.6,2.9-14.7,4.3-24.3,4.3C180.9,121.7,172.6,120.4,164.7,117.7z"/>
	<path class="st2" d="M284.8,108.7c-8.4-8.6-12.6-21.1-12.6-37.3V7h16.2v63.8c0,24.3,10.6,36.5,31.9,36.5c10.4,0,18.3-3,23.8-9
		c5.5-6,8.3-15.2,8.3-27.5V7h15.7v64.5c0,16.3-4.2,28.8-12.6,37.4c-8.4,8.6-20.2,12.9-35.3,12.9C305,121.7,293.3,117.4,284.8,108.7z
		"/>
	<path class="st2" d="M515.1,7v113.4h-13.3l-68.1-84.6v84.6h-16.2V7h13.3l68.1,84.6V7H515.1z"/>
</g>
<path class="st2" d="M320.6,76c-4.4,0-7.9,3.5-7.9,7.9s3.5,7.9,7.9,7.9s7.9-3.5,7.9-7.9S325,76,320.6,76z"/>
<polygon class="st2" points="440,120.1 451.9,120.1 451.9,73.6 440,60.3 "/>
</svg>
